<svg width="582" height="173" viewBox="0 0 582 173" fill="none" xmlns="http://www.w3.org/2000/svg">
<path fill-rule="evenodd" clip-rule="evenodd" d="M0 172.472V143.862L4.16443 141.963L10.5893 109.79L17.3922 77.617L22.6833 75.204C25.7068 73.9975 28.3524 74.3997 28.3524 76.0083C28.6808 84.0456 13.0293 154.634 7.18504 173H0.388938C0.260201 172.828 0.13052 172.652 0 172.472ZM230.926 96.9206C233.194 96.9206 242.642 75.6062 251.713 49.8679L268.72 2.41296L275.145 1.20647L281.57 0V5.63022C281.57 14.8799 263.429 100.54 254.358 131.909C250.201 147.995 245.288 161.266 244.154 161.266C240.375 161.266 212.03 110.192 190.865 65.15L171.212 23.3253L176.503 20.108C179.149 18.0972 182.173 16.4886 183.306 16.4886C184.44 16.4886 194.644 34.5858 205.983 56.7046C217.321 78.8234 228.659 96.9206 230.926 96.9206ZM206.36 12.467L216.565 10.054L233.572 6.43457L240.753 4.82593L238.107 15.2821C236.973 20.9124 233.572 31.3685 230.926 37.8031L226.391 50.2701L216.565 31.3685L206.36 12.467ZM109.609 121.05C111.876 121.05 118.679 102.551 125.104 80.4321C131.151 57.9111 137.954 36.5966 140.6 32.9771L145.135 26.5426L145.513 31.7706C145.513 34.5858 138.332 66.7586 130.017 102.953L114.144 169.712L83.1532 116.224L52.1624 62.737L59.7211 59.5197L67.2799 56.3025L70.6813 61.5306C71.5019 63.0588 74.4388 68.0239 78.3429 74.6245L78.3431 74.6247L78.3436 74.6257C81.6312 80.1838 85.6047 86.9016 89.5781 93.7034C98.6486 108.985 107.341 121.05 109.609 121.05ZM96.003 64.7478C91.8457 57.5089 89.5781 50.2701 91.4678 49.0636C96.7589 44.2377 116.034 36.1944 114.144 39.4117C113.01 41.4225 110.365 50.6722 107.719 60.3241L103.184 78.0191L96.003 64.7478ZM262.038 173L264.563 166.092C266.074 162.473 272.499 133.919 279.302 103.355L291 50.9246V173H262.038ZM225.393 173L216.565 156.843C211.274 147.191 196.912 119.442 184.818 94.9099L162.898 51.0744L157.985 70.7802C155.41 81.7382 148.541 108.692 142.601 131.998L142.111 133.919L132.25 173H150.072L154.583 156.038C157.607 144.778 162.142 127.485 164.41 117.833C166.677 108.583 170.457 100.942 173.102 100.942C175.748 100.942 185.574 117.029 195.022 136.332L212.407 171.32L219.21 172.929L219.611 173H225.393ZM185.216 173C187.978 172.138 189.888 171.39 190.109 170.918C190.865 170.516 188.597 164.081 184.44 157.245L177.637 144.778L173.102 156.038C170.457 162.071 168.567 169.712 168.189 172.527V173H185.216ZM93.5838 173C89.906 164.614 82.3845 150.084 72.9489 133.517L45.3595 84.8558L35.1553 129.898C31.3351 146.7 28.0297 162.954 26.1645 173H35.8531C36.8358 169.323 37.7641 165.202 38.5567 160.864C46.1154 120.246 47.2492 117.029 52.1624 117.029C54.43 117.029 64.2564 131.104 73.7048 147.995C79.236 157.883 84.8968 166.944 89.1706 173H93.5838ZM67.157 173C64.3425 167.277 60.131 161.266 58.2094 161.266C56.7221 161.266 54.8691 166.326 54.0897 173H67.157Z" fill="black"/>
<path fill-rule="evenodd" clip-rule="evenodd" d="M582 172.472V143.862L577.836 141.963L571.411 109.79L564.608 77.617L559.317 75.204C556.293 73.9975 553.648 74.3997 553.648 76.0083C553.319 84.0456 568.971 154.634 574.815 173H581.611C581.74 172.828 581.869 172.652 582 172.472ZM351.074 96.9206C348.806 96.9206 339.358 75.6062 330.287 49.8679L313.28 2.41296L306.855 1.20647L300.43 0V5.63022C300.43 14.8799 318.571 100.54 327.642 131.909C331.799 147.995 336.712 161.266 337.846 161.266C341.625 161.266 369.97 110.192 391.135 65.15L410.788 23.3253L405.497 20.108C402.851 18.0972 399.827 16.4886 398.694 16.4886C397.56 16.4886 387.356 34.5858 376.017 56.7046C364.679 78.8234 353.341 96.9206 351.074 96.9206ZM375.64 12.467L365.435 10.054L348.428 6.43457L341.247 4.82593L343.893 15.2821C345.027 20.9124 348.428 31.3685 351.074 37.8031L355.609 50.2701L365.435 31.3685L375.64 12.467ZM472.391 121.05C470.124 121.05 463.321 102.551 456.896 80.4321C450.849 57.9111 444.046 36.5966 441.4 32.9771L436.865 26.5426L436.487 31.7706C436.487 34.5858 443.668 66.7586 451.983 102.953L467.856 169.712L498.847 116.224L529.838 62.737L522.279 59.5197L514.72 56.3025L511.319 61.5306C510.498 63.0588 507.561 68.0239 503.657 74.6245L503.657 74.6247L503.656 74.6257C500.369 80.1838 496.395 86.9016 492.422 93.7034C483.351 108.985 474.659 121.05 472.391 121.05ZM485.997 64.7478C490.154 57.5089 492.422 50.2701 490.532 49.0636C485.241 44.2377 465.966 36.1944 467.856 39.4117C468.99 41.4225 471.635 50.6722 474.281 60.3241L478.816 78.0191L485.997 64.7478ZM319.962 173L317.437 166.092C315.926 162.473 309.501 133.919 302.698 103.355L291 50.9246V173H319.962ZM356.607 173L365.435 156.843C370.726 147.191 385.088 119.442 397.182 94.9099L419.102 51.0744L424.015 70.7802C426.59 81.7382 433.459 108.692 439.399 131.998L439.889 133.919L449.75 173H431.928L427.417 156.038C424.393 144.778 419.858 127.485 417.59 117.833C415.323 108.583 411.543 100.942 408.898 100.942C406.252 100.942 396.426 117.029 386.978 136.332L369.593 171.32L362.79 172.929L362.389 173H356.607ZM396.784 173C394.022 172.138 392.112 171.39 391.891 170.918C391.135 170.516 393.403 164.081 397.56 157.245L404.363 144.778L408.898 156.038C411.543 162.071 413.433 169.712 413.811 172.527V173H396.784ZM488.416 173C492.094 164.614 499.616 150.084 509.051 133.517L536.64 84.8558L546.845 129.898C550.665 146.7 553.97 162.954 555.836 173H546.147C545.164 169.323 544.236 165.202 543.443 160.864C535.885 120.246 534.751 117.029 529.838 117.029C527.57 117.029 517.744 131.104 508.295 147.995C502.764 157.883 497.103 166.944 492.829 173H488.416ZM514.843 173C517.657 167.277 521.869 161.266 523.791 161.266C525.278 161.266 527.131 166.326 527.91 173H514.843Z" fill="black"/>
</svg>
