<svg width="582" height="173" viewBox="0 0 582 173" fill="none" xmlns="http://www.w3.org/2000/svg">
<path fill-rule="evenodd" clip-rule="evenodd" d="M0 0.528297V29.1382L4.16443 31.0374L10.5893 63.2102L17.3922 95.383L22.6833 97.796C25.7068 99.0025 28.3524 98.6003 28.3524 96.9917C28.6808 88.9544 13.0293 18.3664 7.18504 0H0.388938C0.260201 0.172108 0.13052 0.348272 0 0.528297ZM230.926 76.0794C233.194 76.0794 242.642 97.3938 251.713 123.132L268.72 170.587L275.145 171.794L281.57 173V167.37C281.57 158.12 263.429 72.4599 254.358 41.0914C250.201 25.005 245.288 11.7337 244.154 11.7337C240.375 11.7337 212.03 62.808 190.865 107.85L171.212 149.675L176.503 152.892C179.149 154.903 182.173 156.511 183.306 156.511C184.44 156.511 194.644 138.414 205.983 116.295C217.321 94.1766 228.659 76.0794 230.926 76.0794ZM206.36 160.533L216.565 162.946L233.572 166.565L240.753 168.174L238.107 157.718C236.973 152.088 233.572 141.631 230.926 135.197L226.391 122.73L216.565 141.631L206.36 160.533ZM109.609 51.9497C111.876 51.9497 118.679 70.4491 125.104 92.5679C131.151 115.089 137.954 136.403 140.6 140.023L145.135 146.457L145.513 141.229C145.513 138.414 138.332 106.241 130.017 70.0469L114.144 3.28831L83.1532 56.7756L52.1624 110.263L59.7211 113.48L67.2799 116.698L70.6813 111.469C71.5019 109.941 74.4388 104.976 78.3429 98.3755L78.3431 98.3753L78.3436 98.3743C81.6312 92.8162 85.6047 86.0984 89.5781 79.2966C98.6486 64.0145 107.341 51.9497 109.609 51.9497ZM96.003 108.252C91.8457 115.491 89.5781 122.73 91.4678 123.936C96.7589 128.762 116.034 136.806 114.144 133.588C113.01 131.577 110.365 122.328 107.719 112.676L103.184 94.9809L96.003 108.252ZM262.038 0L264.563 6.90775C266.074 10.5272 272.499 39.0806 279.302 69.6448L291 122.075V0H262.038ZM225.393 0L216.565 16.1574C211.274 25.8093 196.912 53.5583 184.818 78.0901L162.898 121.926L157.985 102.22C155.41 91.2618 148.541 64.3082 142.601 41.0018L142.111 39.0806L132.25 0H150.072L154.583 16.9618C157.607 28.2223 162.142 45.5151 164.41 55.167C166.677 64.4167 170.457 72.0577 173.102 72.0577C175.748 72.0577 185.574 55.9713 195.022 36.6676L212.407 1.67966L219.21 0.0709991L219.611 0H225.393ZM185.216 0C187.978 0.862335 189.888 1.61031 190.109 2.08183C190.865 2.48399 188.597 8.91855 184.44 15.7553L177.637 28.2223L173.102 16.9618C170.457 10.9294 168.567 3.2883 168.189 0.473175V0H185.216ZM93.5838 0C89.906 8.38631 82.3845 22.9162 72.9489 39.4827L45.3595 88.1442L35.1553 43.1022C31.3351 26.3 28.0297 10.0456 26.1645 0H35.8531C36.8358 3.67728 37.7641 7.79826 38.5567 12.1358C46.1154 52.7541 47.2492 55.9713 52.1624 55.9713C54.43 55.9713 64.2564 41.8957 73.7048 25.0049C79.236 15.1169 84.8968 6.05571 89.1706 0H93.5838ZM67.157 0C64.3425 5.72314 60.131 11.7337 58.2094 11.7337C56.7221 11.7337 54.8691 6.67369 54.0897 0H67.157Z" fill="black"/>
<path fill-rule="evenodd" clip-rule="evenodd" d="M582 0.528297V29.1382L577.836 31.0374L571.411 63.2102L564.608 95.383L559.317 97.796C556.293 99.0025 553.648 98.6003 553.648 96.9917C553.319 88.9544 568.971 18.3664 574.815 0H581.611C581.74 0.172108 581.869 0.348272 582 0.528297ZM351.074 76.0794C348.806 76.0794 339.358 97.3938 330.287 123.132L313.28 170.587L306.855 171.794L300.43 173V167.37C300.43 158.12 318.571 72.4599 327.642 41.0914C331.799 25.005 336.712 11.7337 337.846 11.7337C341.625 11.7337 369.97 62.808 391.135 107.85L410.788 149.675L405.497 152.892C402.851 154.903 399.827 156.511 398.694 156.511C397.56 156.511 387.356 138.414 376.017 116.295C364.679 94.1766 353.341 76.0794 351.074 76.0794ZM375.64 160.533L365.435 162.946L348.428 166.565L341.247 168.174L343.893 157.718C345.027 152.088 348.428 141.631 351.074 135.197L355.609 122.73L365.435 141.631L375.64 160.533ZM472.391 51.9497C470.124 51.9497 463.321 70.4491 456.896 92.5679C450.849 115.089 444.046 136.403 441.4 140.023L436.865 146.457L436.487 141.229C436.487 138.414 443.668 106.241 451.983 70.0469L467.856 3.28831L498.847 56.7756L529.838 110.263L522.279 113.48L514.72 116.698L511.319 111.469C510.498 109.941 507.561 104.976 503.657 98.3755L503.657 98.3753L503.656 98.3743C500.369 92.8162 496.395 86.0984 492.422 79.2966C483.351 64.0145 474.659 51.9497 472.391 51.9497ZM485.997 108.252C490.154 115.491 492.422 122.73 490.532 123.936C485.241 128.762 465.966 136.806 467.856 133.588C468.99 131.577 471.635 122.328 474.281 112.676L478.816 94.9809L485.997 108.252ZM319.962 0L317.437 6.90775C315.926 10.5272 309.501 39.0806 302.698 69.6448L291 122.075V0H319.962ZM356.607 0L365.435 16.1574C370.726 25.8093 385.088 53.5583 397.182 78.0901L419.102 121.926L424.015 102.22C426.59 91.2618 433.459 64.3082 439.399 41.0018L439.889 39.0806L449.75 0H431.928L427.417 16.9618C424.393 28.2223 419.858 45.5151 417.59 55.167C415.323 64.4167 411.543 72.0577 408.898 72.0577C406.252 72.0577 396.426 55.9713 386.978 36.6676L369.593 1.67966L362.79 0.0709991L362.389 0H356.607ZM396.784 0C394.022 0.862335 392.112 1.61031 391.891 2.08183C391.135 2.48399 393.403 8.91855 397.56 15.7553L404.363 28.2223L408.898 16.9618C411.543 10.9294 413.433 3.2883 413.811 0.473175V0H396.784ZM488.416 0C492.094 8.38631 499.616 22.9162 509.051 39.4827L536.64 88.1442L546.845 43.1022C550.665 26.3 553.97 10.0456 555.836 0H546.147C545.164 3.67728 544.236 7.79826 543.443 12.1358C535.885 52.7541 534.751 55.9713 529.838 55.9713C527.57 55.9713 517.744 41.8957 508.295 25.0049C502.764 15.1169 497.103 6.05571 492.829 0H488.416ZM514.843 0C517.657 5.72314 521.869 11.7337 523.791 11.7337C525.278 11.7337 527.131 6.67369 527.91 0H514.843Z" fill="black"/>
</svg>
