<svg width="84" height="55" viewBox="0 0 44 29" fill="none" xmlns="http://www.w3.org/2000/svg">
<rect width="44" height="28.8636" rx="3.13167" fill="#73AF00"/>
<path d="M21.7274 3.87296C21.8947 3.77039 22.1055 3.77039 22.2728 3.87296L38.733 13.9607C39.0653 14.1643 39.0653 14.6471 38.733 14.8507L22.2728 24.9384C22.1055 25.041 21.8947 25.041 21.7274 24.9384L5.26716 14.8507C4.93488 14.6471 4.93488 14.1643 5.26716 13.9607L21.7274 3.87296Z" fill="#FFE15A"/>
<circle cx="22" cy="14.4318" r="6.13286" fill="#41479B"/>
<path d="M27.6894 16.6501C24.1876 13.2208 18.3957 12.6523 16.0406 12.8857C16.0356 12.4056 16.4971 11.6195 16.7285 11.2865C22.4905 11.2262 26.8072 13.8145 28.1422 15.0272C28.1494 15.7161 27.8433 16.3962 27.6894 16.6501Z" fill="#F5F5F5"/>
<path d="M22.184 16.4655C22.1918 16.4414 22.2258 16.4414 22.2336 16.4655L22.408 17.0022C22.4115 17.013 22.4215 17.0202 22.4328 17.0202H22.9972C23.0225 17.0202 23.033 17.0526 23.0125 17.0675L22.556 17.3992C22.5468 17.4058 22.543 17.4176 22.5465 17.4283L22.7209 17.9651C22.7287 17.9891 22.7012 18.0091 22.6807 17.9943L22.2242 17.6625C22.215 17.6559 22.2026 17.6559 22.1935 17.6625L21.7369 17.9943C21.7165 18.0091 21.6889 17.9891 21.6967 17.9651L21.8711 17.4283C21.8746 17.4176 21.8708 17.4058 21.8617 17.3992L21.4051 17.0675C21.3846 17.0526 21.3952 17.0202 21.4204 17.0202H21.9848C21.9961 17.0202 22.0061 17.013 22.0096 17.0022L22.184 16.4655Z" fill="#F5F5F5"/>
<path d="M24.3502 11.5592C24.358 11.5351 24.392 11.5351 24.3998 11.5592L24.4863 11.8254C24.4898 11.8362 24.4998 11.8434 24.5111 11.8434H24.7911C24.8163 11.8434 24.8268 11.8758 24.8064 11.8907L24.5799 12.0552C24.5708 12.0618 24.5669 12.0736 24.5704 12.0844L24.6569 12.3506C24.6648 12.3747 24.6372 12.3946 24.6168 12.3798L24.3903 12.2152C24.3812 12.2086 24.3688 12.2086 24.3596 12.2152L24.1332 12.3798C24.1127 12.3946 24.0852 12.3747 24.093 12.3506L24.1795 12.0844C24.183 12.0736 24.1792 12.0618 24.17 12.0552L23.9436 11.8907C23.9231 11.8758 23.9336 11.8434 23.9589 11.8434H24.2388C24.2501 11.8434 24.2602 11.8362 24.2636 11.8254L24.3502 11.5592Z" fill="#F5F5F5"/>
<path d="M20.6963 17.6137C20.7042 17.5897 20.7382 17.5897 20.746 17.6137L20.8325 17.88C20.836 17.8907 20.846 17.898 20.8573 17.898H21.1372C21.1625 17.898 21.173 17.9304 21.1526 17.9452L20.9261 18.1098C20.917 18.1164 20.9131 18.1282 20.9166 18.1389L21.0031 18.4052C21.0109 18.4292 20.9834 18.4492 20.963 18.4344L20.7365 18.2698C20.7274 18.2632 20.715 18.2632 20.7058 18.2698L20.4794 18.4344C20.4589 18.4492 20.4314 18.4292 20.4392 18.4052L20.5257 18.1389C20.5292 18.1282 20.5254 18.1164 20.5162 18.1098L20.2897 17.9452C20.2693 17.9304 20.2798 17.898 20.3051 17.898H20.585C20.5963 17.898 20.6063 17.8907 20.6098 17.88L20.6963 17.6137Z" fill="#F5F5F5"/>
<path d="M18.6085 16.5177C18.6163 16.4936 18.6503 16.4936 18.6581 16.5177L18.7446 16.7839C18.7481 16.7947 18.7581 16.8019 18.7694 16.8019H19.0494C19.0746 16.8019 19.0851 16.8343 19.0647 16.8492L18.8382 17.0137C18.8291 17.0203 18.8252 17.0321 18.8287 17.0429L18.9152 17.3091C18.9231 17.3331 18.8955 17.3531 18.8751 17.3383L18.6486 17.1737C18.6395 17.1671 18.6271 17.1671 18.6179 17.1737L18.3915 17.3383C18.371 17.3531 18.3435 17.3331 18.3513 17.3091L18.4378 17.0429C18.4413 17.0321 18.4375 17.0203 18.4283 17.0137L18.2019 16.8492C18.1814 16.8343 18.1919 16.8019 18.2172 16.8019H18.4971C18.5084 16.8019 18.5185 16.7947 18.5219 16.7839L18.6085 16.5177Z" fill="#F5F5F5"/>
<path d="M17.5128 15.2128C17.5206 15.1888 17.5546 15.1888 17.5624 15.2128L17.6489 15.479C17.6524 15.4898 17.6624 15.4971 17.6737 15.4971H17.9537C17.9789 15.4971 17.9894 15.5294 17.969 15.5443L17.7425 15.7088C17.7334 15.7155 17.7295 15.7272 17.733 15.738L17.8195 16.0042C17.8274 16.0283 17.7998 16.0483 17.7794 16.0334L17.5529 15.8689C17.5438 15.8622 17.5314 15.8622 17.5222 15.8689L17.2958 16.0334C17.2753 16.0483 17.2478 16.0283 17.2556 16.0042L17.3421 15.738C17.3456 15.7272 17.3418 15.7155 17.3326 15.7088L17.1062 15.5443C17.0857 15.5294 17.0962 15.4971 17.1215 15.4971H17.4014C17.4127 15.4971 17.4228 15.4898 17.4262 15.479L17.5128 15.2128Z" fill="#F5F5F5"/>
<path d="M17.7735 13.9601C17.7813 13.9361 17.8153 13.9361 17.8231 13.9601L17.9096 14.2264C17.9131 14.2371 17.9232 14.2444 17.9345 14.2444H18.2144C18.2397 14.2444 18.2502 14.2767 18.2297 14.2916L18.0033 14.4561C17.9941 14.4628 17.9903 14.4746 17.9938 14.4853L18.0803 14.7515C18.0881 14.7756 18.0606 14.7956 18.0401 14.7807L17.8137 14.6162C17.8045 14.6095 17.7921 14.6095 17.783 14.6162L17.5565 14.7807C17.536 14.7956 17.5085 14.7756 17.5163 14.7515L17.6028 14.4853C17.6063 14.4746 17.6025 14.4628 17.5934 14.4561L17.3669 14.2916C17.3464 14.2767 17.357 14.2444 17.3822 14.2444H17.6622C17.6735 14.2444 17.6835 14.2371 17.687 14.2264L17.7735 13.9601Z" fill="#F5F5F5"/>
<path d="M18.9742 15.004C18.982 14.98 19.016 14.98 19.0238 15.004L19.1103 15.2702C19.1138 15.281 19.1238 15.2883 19.1351 15.2883H19.4151C19.4404 15.2883 19.4509 15.3206 19.4304 15.3355L19.2039 15.5C19.1948 15.5067 19.191 15.5184 19.1945 15.5292L19.281 15.7954C19.2888 15.8195 19.2613 15.8395 19.2408 15.8246L19.0143 15.6601C19.0052 15.6534 18.9928 15.6534 18.9837 15.6601L18.7572 15.8246C18.7367 15.8395 18.7092 15.8195 18.717 15.7954L18.8035 15.5292C18.807 15.5184 18.8032 15.5067 18.794 15.5L18.5676 15.3355C18.5471 15.3206 18.5576 15.2883 18.5829 15.2883H18.8629C18.8742 15.2883 18.8842 15.281 18.8877 15.2702L18.9742 15.004Z" fill="#F5F5F5"/>
<path d="M21.3228 15.4738C21.3306 15.4497 21.3646 15.4497 21.3724 15.4738L21.459 15.74C21.4624 15.7508 21.4725 15.7581 21.4838 15.7581H21.7637C21.789 15.7581 21.7995 15.7904 21.779 15.8053L21.5526 15.9698C21.5434 15.9765 21.5396 15.9882 21.5431 15.999L21.6296 16.2652C21.6374 16.2893 21.6099 16.3093 21.5894 16.2944L21.363 16.1299C21.3538 16.1232 21.3414 16.1232 21.3323 16.1299L21.1058 16.2944C21.0854 16.3093 21.0578 16.2893 21.0657 16.2652L21.1522 15.999C21.1557 15.9882 21.1518 15.9765 21.1427 15.9698L20.9162 15.8053C20.8958 15.7904 20.9063 15.7581 20.9315 15.7581H21.2115C21.2228 15.7581 21.2328 15.7508 21.2363 15.74L21.3228 15.4738Z" fill="#F5F5F5"/>
<path d="M24.1934 17.6659C24.2012 17.6419 24.2352 17.6419 24.2431 17.6659L24.3296 17.9322C24.3331 17.9429 24.3431 17.9502 24.3544 17.9502H24.6343C24.6596 17.9502 24.6701 17.9825 24.6497 17.9974L24.4232 18.1619C24.414 18.1686 24.4102 18.1804 24.4137 18.1911L24.5002 18.4574C24.508 18.4814 24.4805 18.5014 24.46 18.4865L24.2336 18.322C24.2244 18.3153 24.212 18.3153 24.2029 18.322L23.9764 18.4865C23.956 18.5014 23.9285 18.4814 23.9363 18.4574L24.0228 18.1911C24.0263 18.1804 24.0224 18.1686 24.0133 18.1619L23.7868 17.9974C23.7664 17.9825 23.7769 17.9502 23.8022 17.9502H24.0821C24.0934 17.9502 24.1034 17.9429 24.1069 17.9322L24.1934 17.6659Z" fill="#F5F5F5"/>
<path d="M25.3419 17.6659C25.3497 17.6419 25.3837 17.6419 25.3915 17.6659L25.478 17.9322C25.4815 17.9429 25.4915 17.9502 25.5028 17.9502H25.7828C25.808 17.9502 25.8185 17.9825 25.7981 17.9974L25.5716 18.1619C25.5625 18.1686 25.5586 18.1804 25.5621 18.1911L25.6486 18.4574C25.6565 18.4814 25.6289 18.5014 25.6085 18.4865L25.382 18.322C25.3729 18.3153 25.3605 18.3153 25.3513 18.322L25.1249 18.4865C25.1044 18.5014 25.0769 18.4814 25.0847 18.4574L25.1712 18.1911C25.1747 18.1804 25.1709 18.1686 25.1617 18.1619L24.9353 17.9974C24.9148 17.9825 24.9253 17.9502 24.9506 17.9502H25.2305C25.2418 17.9502 25.2519 17.9429 25.2553 17.9322L25.3419 17.6659Z" fill="#F5F5F5"/>
<path d="M25.9161 16.4655C25.9239 16.4414 25.9579 16.4414 25.9657 16.4655L26.0522 16.7317C26.0557 16.7425 26.0657 16.7498 26.077 16.7498H26.357C26.3823 16.7498 26.3928 16.7821 26.3723 16.797L26.1458 16.9615C26.1367 16.9682 26.1329 16.9799 26.1364 16.9907L26.2229 17.2569C26.2307 17.281 26.2032 17.301 26.1827 17.2861L25.9562 17.1216C25.9471 17.1149 25.9347 17.1149 25.9256 17.1216L25.6991 17.2861C25.6786 17.301 25.6511 17.281 25.6589 17.2569L25.7454 16.9907C25.7489 16.9799 25.7451 16.9682 25.7359 16.9615L25.5095 16.797C25.489 16.7821 25.4995 16.7498 25.5248 16.7498H25.8047C25.8161 16.7498 25.8261 16.7425 25.8296 16.7317L25.9161 16.4655Z" fill="#F5F5F5"/>
</svg>
