<svg width="84" height="55" viewBox="0 0 84 55" fill="none" xmlns="http://www.w3.org/2000/svg">
<rect width="84" height="55" fill="#0000001"/>
<path id="Rectangle 124" d="M-94 -147H1726V212C1726 220.284 1719.28 227 1711 227H-79C-87.2842 227 -94 220.284 -94 212V-147Z" fill="transparent"/>
<g id="Brazil_flag">
<rect id="Rectangle 96" x="0.952758" y="0.952758" width="81.9372" height="53.0945" rx="5.01469" stroke="white" stroke-width="1.90552"/>
<path id="Polygon 24" d="M41.9 8.19285C41.9134 8.18463 41.9303 8.18463 41.9437 8.19285L73.3089 27.4151C73.3161 27.4196 73.3195 27.4229 73.3208 27.4243C73.3222 27.4258 73.3232 27.4273 73.3241 27.4289C73.3262 27.4327 73.3288 27.4402 73.3288 27.4508C73.3288 27.4614 73.3262 27.4689 73.3241 27.4727C73.3232 27.4744 73.3222 27.4758 73.3208 27.4773C73.3195 27.4787 73.3161 27.482 73.3089 27.4865L41.9437 46.7087C41.9303 46.717 41.9134 46.717 41.9 46.7087L10.5348 27.4865C10.5276 27.482 10.5243 27.4787 10.5229 27.4773C10.5215 27.4758 10.5205 27.4743 10.5196 27.4727C10.5176 27.4689 10.5149 27.4614 10.5149 27.4508C10.5149 27.4402 10.5176 27.4327 10.5196 27.4289C10.5205 27.4273 10.5215 27.4258 10.5229 27.4243C10.5243 27.4229 10.5276 27.4196 10.5348 27.4151L41.9 8.19285Z" stroke="white" stroke-width="1.90552"/>
<circle id="Ellipse 16" cx="41.9206" cy="27.5002" r="10.7335" stroke="white" stroke-width="1.90552"/>
<path id="Vector 19" d="M52.761 31.7268C46.0883 25.1923 35.0517 24.109 30.564 24.5538C30.5544 23.6388 31.4339 22.141 31.8748 21.5065C42.8543 21.3916 51.0799 26.3236 53.6238 28.6344C53.6375 29.9472 53.0543 31.243 52.761 31.7268Z" stroke="white" stroke-width="1.90552"/>
<g id="Star 12">
<mask id="path-6-inside-1_0_1" fill="white">
<path d="M42.2694 31.4225C42.282 31.3723 42.3533 31.3723 42.3659 31.4225L42.6318 32.4837C42.6377 32.5071 42.6595 32.5229 42.6835 32.5213L43.775 32.4462C43.8266 32.4427 43.8487 32.5105 43.8048 32.538L42.8777 33.1189C42.8573 33.1317 42.8489 33.1573 42.8579 33.1796L43.2666 34.1945C43.2859 34.2425 43.2282 34.2844 43.1885 34.2512L42.3496 33.5489C42.3311 33.5335 42.3042 33.5335 42.2857 33.5489L41.4468 34.2512C41.4071 34.2844 41.3494 34.2425 41.3687 34.1945L41.7774 33.1796C41.7864 33.1573 41.7781 33.1317 41.7576 33.1189L40.8305 32.538C40.7867 32.5105 40.8087 32.4427 40.8603 32.4462L41.9518 32.5213C41.9759 32.5229 41.9976 32.5071 42.0035 32.4837L42.2694 31.4225Z"/>
</mask>
<path d="M41.9518 32.5213L42.0825 30.6202L41.9518 32.5213ZM42.0035 32.4837L40.1551 32.0206L42.0035 32.4837ZM40.8305 32.538L39.8188 34.1528L40.8305 32.538ZM40.8603 32.4462L40.7297 34.3473L40.8603 32.4462ZM41.7774 33.1796L40.0098 32.4679L41.7774 33.1796ZM41.7576 33.1189L40.7459 34.7336L41.7576 33.1189ZM41.4468 34.2512L40.2237 32.79L41.4468 34.2512ZM41.3687 34.1945L39.6011 33.4828L41.3687 34.1945ZM42.3496 33.5489L41.1265 35.0101L42.3496 33.5489ZM42.2857 33.5489L43.5088 35.0101L42.2857 33.5489ZM43.2666 34.1945L45.0342 33.4828L43.2666 34.1945ZM43.1885 34.2512L44.4116 32.79L43.1885 34.2512ZM42.8777 33.1189L43.8894 34.7336L42.8777 33.1189ZM42.8579 33.1796L41.0903 33.8913L42.8579 33.1796ZM43.775 32.4462L43.6443 30.5452L43.775 32.4462ZM43.8048 32.538L44.8165 34.1528L43.8048 32.538ZM42.6318 32.4837L44.4802 32.0206L42.6318 32.4837ZM42.6835 32.5213L42.8141 34.4223L42.6835 32.5213ZM42.2694 31.4225L44.1178 31.8857L42.2694 31.4225ZM40.5175 31.8857L40.7835 32.9469L44.4802 32.0206L44.2143 30.9593L40.5175 31.8857ZM42.8141 34.4223L43.9057 34.3473L43.6443 30.5452L42.5528 30.6202L42.8141 34.4223ZM42.7931 30.9232L41.866 31.5041L43.8894 34.7336L44.8165 34.1528L42.7931 30.9232ZM41.0903 33.8913L41.499 34.9062L45.0342 33.4828L44.6256 32.4679L41.0903 33.8913ZM44.4116 32.79L43.5727 32.0878L41.1265 35.0101L41.9654 35.7124L44.4116 32.79ZM41.0626 32.0878L40.2237 32.79L42.6699 35.7124L43.5088 35.0101L41.0626 32.0878ZM43.1363 34.9062L43.545 33.8913L40.0098 32.4679L39.6011 33.4828L43.1363 34.9062ZM42.7693 31.5041L41.8422 30.9232L39.8188 34.1528L40.7459 34.7336L42.7693 31.5041ZM40.7297 34.3473L41.8212 34.4223L42.0825 30.6202L40.991 30.5452L40.7297 34.3473ZM43.8518 32.9469L44.1178 31.8857L40.4211 30.9593L40.1551 32.0206L43.8518 32.9469ZM41.8212 34.4223C42.766 34.4872 43.6216 33.8656 43.8518 32.9469L40.1551 32.0206C40.3736 31.1486 41.1857 30.5586 42.0825 30.6202L41.8212 34.4223ZM41.8422 30.9232C43.4784 31.9484 42.6559 34.4797 40.7297 34.3473L40.991 30.5452C38.9615 30.4057 38.0949 33.0727 39.8188 34.1528L41.8422 30.9232ZM43.545 33.8913C43.8987 33.0127 43.5719 32.007 42.7693 31.5041L40.7459 34.7336C39.9842 34.2564 39.674 33.3018 40.0098 32.4679L43.545 33.8913ZM40.2237 32.79C41.7043 31.5507 43.8575 33.1151 43.1363 34.9062L39.6011 33.4828C38.8413 35.3699 41.1099 37.0182 42.6699 35.7124L40.2237 32.79ZM43.5727 32.0878C42.8464 31.4799 41.7889 31.4799 41.0626 32.0878L43.5088 35.0101C42.8195 35.5871 41.8158 35.5871 41.1265 35.0101L43.5727 32.0878ZM41.499 34.9062C40.7778 33.1151 42.9311 31.5507 44.4116 32.79L41.9654 35.7124C43.5253 37.0181 45.794 35.3699 45.0342 33.4828L41.499 34.9062ZM41.866 31.5041C41.0634 32.007 40.7366 33.0127 41.0903 33.8913L44.6256 32.4679C44.9613 33.3018 44.6511 34.2564 43.8894 34.7336L41.866 31.5041ZM43.9057 34.3473C41.9794 34.4797 41.1569 31.9484 42.7931 30.9232L44.8165 34.1528C46.5404 33.0727 45.6739 30.4057 43.6443 30.5452L43.9057 34.3473ZM40.7835 32.9469C41.0137 33.8656 41.8693 34.4872 42.8141 34.4223L42.5528 30.6202C43.4496 30.5586 44.2617 31.1486 44.4802 32.0206L40.7835 32.9469ZM44.2143 30.9593C43.7198 28.986 40.9156 28.986 40.4211 30.9593L44.1178 31.8857C43.6484 33.7586 40.9869 33.7585 40.5175 31.8857L44.2143 30.9593Z" fill="white" mask="url(#path-6-inside-1_0_1)"/>
</g>
<g id="Star 13">
<mask id="path-8-inside-2_0_1" fill="white">
<path d="M46.3975 22.0733C46.4101 22.0232 46.4814 22.0232 46.494 22.0734L46.6209 22.58C46.6268 22.6034 46.6486 22.6192 46.6726 22.6175L47.1937 22.5817C47.2453 22.5782 47.2673 22.646 47.2235 22.6735L46.7809 22.9508C46.7605 22.9635 46.7521 22.9891 46.7611 23.0115L46.9562 23.496C46.9755 23.544 46.9178 23.5859 46.8782 23.5527L46.4777 23.2174C46.4592 23.202 46.4323 23.202 46.4138 23.2174L46.0133 23.5527C45.9736 23.5859 45.9159 23.544 45.9353 23.496L46.1304 23.0115C46.1393 22.9891 46.131 22.9635 46.1106 22.9508L45.668 22.6735C45.6242 22.646 45.6462 22.5782 45.6978 22.5817L46.2189 22.6175C46.2429 22.6192 46.2647 22.6034 46.2705 22.58L46.3975 22.0733Z"/>
</mask>
<path d="M46.2705 22.58L48.1189 23.0432L46.2705 22.58ZM45.668 22.6735L44.6563 24.2882L45.668 22.6735ZM45.6978 22.5817L45.8285 20.6807L45.6978 22.5817ZM46.1304 23.0115L44.3627 22.2998L46.1304 23.0115ZM46.1106 22.9508L45.0989 24.5655L46.1106 22.9508ZM46.4777 23.2174L47.7008 21.7563L46.4777 23.2174ZM46.4138 23.2174L45.1907 21.7563L46.4138 23.2174ZM46.9562 23.496L48.7238 22.7843L46.9562 23.496ZM46.8782 23.5527L45.6551 25.0139L46.8782 23.5527ZM46.7809 22.9508L45.7692 21.336L46.7809 22.9508ZM46.7611 23.0115L48.5288 22.2998L46.7611 23.0115ZM47.2235 22.6735L46.2118 21.0587L47.2235 22.6735ZM46.6209 22.58L44.7726 23.0432L46.6209 22.58ZM46.6726 22.6175L46.8032 24.5185L46.6726 22.6175ZM46.3975 22.0733L44.5491 21.6102V21.6102L46.3975 22.0733ZM44.6456 22.5365L44.7726 23.0432L48.4693 22.1168L48.3423 21.6102L44.6456 22.5365ZM46.8032 24.5185L47.3243 24.4827L47.063 20.6807L46.5419 20.7165L46.8032 24.5185ZM46.2118 21.0587L45.7692 21.336L47.7926 24.5655L48.2352 24.2882L46.2118 21.0587ZM44.9935 23.7232L45.1886 24.2077L48.7238 22.7843L48.5288 22.2998L44.9935 23.7232ZM48.1013 22.0915L47.7008 21.7563L45.2546 24.6786L45.6551 25.0139L48.1013 22.0915ZM45.1907 21.7563L44.7902 22.0915L47.2364 25.0139L47.6369 24.6786L45.1907 21.7563ZM47.7029 24.2077L47.898 23.7232L44.3627 22.2998L44.1677 22.7843L47.7029 24.2077ZM47.1223 21.336L46.6797 21.0587L44.6563 24.2882L45.0989 24.5655L47.1223 21.336ZM45.5672 24.4827L46.0882 24.5185L46.3496 20.7165L45.8285 20.6807L45.5672 24.4827ZM48.1189 23.0432L48.2459 22.5365L44.5491 21.6102L44.4222 22.1168L48.1189 23.0432ZM46.0882 24.5185C47.0331 24.5835 47.8887 23.9619 48.1189 23.0432L44.4222 22.1168C44.6407 21.2448 45.4527 20.6548 46.3496 20.7165L46.0882 24.5185ZM46.6797 21.0587C48.3159 22.0838 47.4934 24.6151 45.5672 24.4827L45.8285 20.6807C43.799 20.5412 42.9324 23.2081 44.6563 24.2882L46.6797 21.0587ZM47.898 23.7232C48.2517 22.8446 47.9249 21.8388 47.1223 21.336L45.0989 24.5655C44.3372 24.0883 44.027 23.1336 44.3627 22.2998L47.898 23.7232ZM44.7902 22.0915C46.2708 20.8522 48.424 22.4166 47.7029 24.2077L44.1677 22.7843C43.4079 24.6713 45.6765 26.3196 47.2364 25.0139L44.7902 22.0915ZM47.7008 21.7563C46.9745 21.1483 45.917 21.1483 45.1907 21.7563L47.6369 24.6786C46.9476 25.2556 45.9439 25.2556 45.2546 24.6786L47.7008 21.7563ZM45.1886 24.2077C44.4674 22.4166 46.6207 20.8522 48.1013 22.0915L45.6551 25.0139C47.215 26.3196 49.4837 24.6714 48.7238 22.7843L45.1886 24.2077ZM45.7692 21.336C44.9666 21.8388 44.6398 22.8446 44.9935 23.7232L48.5288 22.2998C48.8645 23.1336 48.5543 24.0883 47.7926 24.5655L45.7692 21.336ZM47.3243 24.4827C45.398 24.6151 44.5756 22.0838 46.2118 21.0587L48.2352 24.2882C49.9591 23.2082 49.0925 20.5412 47.063 20.6807L47.3243 24.4827ZM44.7726 23.0432C45.0028 23.9619 45.8584 24.5835 46.8032 24.5185L46.5419 20.7165C47.4388 20.6548 48.2508 21.2448 48.4693 22.1168L44.7726 23.0432ZM48.3423 21.6102C47.8479 19.6369 45.0436 19.6368 44.5491 21.6102L48.2459 22.5365C47.7765 24.4095 45.115 24.4094 44.6456 22.5365L48.3423 21.6102Z" fill="white" mask="url(#path-8-inside-2_0_1)"/>
</g>
<g id="Star 14">
<mask id="path-10-inside-3_0_1" fill="white">
<path d="M39.4356 33.6105C39.4482 33.5603 39.5195 33.5603 39.5321 33.6105L39.659 34.1171C39.6649 34.1405 39.6866 34.1563 39.7107 34.1546L40.2318 34.1188C40.2834 34.1153 40.3054 34.1831 40.2616 34.2106L39.819 34.4879C39.7985 34.5007 39.7902 34.5262 39.7992 34.5486L39.9943 35.0331C40.0136 35.0811 39.9559 35.123 39.9163 35.0898L39.5158 34.7545C39.4973 34.7391 39.4704 34.7391 39.4519 34.7545L39.0514 35.0898C39.0117 35.123 38.954 35.0811 38.9734 35.0331L39.1684 34.5486C39.1774 34.5262 39.1691 34.5007 39.1487 34.4879L38.7061 34.2106C38.6623 34.1831 38.6843 34.1153 38.7359 34.1188L39.257 34.1546C39.281 34.1563 39.3028 34.1405 39.3086 34.1171L39.4356 33.6105Z"/>
</mask>
<path d="M39.3086 34.1171L41.157 34.5803L39.3086 34.1171ZM38.7061 34.2106L37.6944 35.8253L38.7061 34.2106ZM38.7359 34.1188L38.8666 32.2178L38.7359 34.1188ZM39.1684 34.5486L37.4008 33.8369L39.1684 34.5486ZM39.1487 34.4879L38.137 36.1026L39.1487 34.4879ZM39.5158 34.7545L40.7389 33.2934L39.5158 34.7545ZM39.4519 34.7545L38.2288 33.2934L39.4519 34.7545ZM39.9943 35.0331L41.7619 34.3214L39.9943 35.0331ZM39.9163 35.0898L38.6932 36.551L39.9163 35.0898ZM39.819 34.4879L38.8073 32.8731L39.819 34.4879ZM39.7992 34.5486L41.5668 33.8369L39.7992 34.5486ZM40.2616 34.2106L39.2499 32.5958L40.2616 34.2106ZM39.659 34.1171L37.8107 34.5803L39.659 34.1171ZM39.7107 34.1546L39.8413 36.0557L39.7107 34.1546ZM39.4356 33.6105L37.5872 33.1473V33.1473L39.4356 33.6105ZM37.6837 34.0736L37.8107 34.5803L41.5074 33.6539L41.3804 33.1473L37.6837 34.0736ZM39.8413 36.0557L40.3624 36.0198L40.1011 32.2178L39.58 32.2536L39.8413 36.0557ZM39.2499 32.5958L38.8073 32.8731L40.8307 36.1026L41.2733 35.8253L39.2499 32.5958ZM38.0316 35.2603L38.2267 35.7448L41.7619 34.3214L41.5668 33.8369L38.0316 35.2603ZM41.1394 33.6286L40.7389 33.2934L38.2927 36.2157L38.6932 36.551L41.1394 33.6286ZM38.2288 33.2934L37.8283 33.6286L40.2745 36.551L40.675 36.2157L38.2288 33.2934ZM40.741 35.7448L40.936 35.2603L37.4008 33.8369L37.2057 34.3214L40.741 35.7448ZM40.1604 32.8731L39.7178 32.5958L37.6944 35.8253L38.137 36.1026L40.1604 32.8731ZM38.6053 36.0198L39.1263 36.0557L39.3876 32.2536L38.8666 32.2178L38.6053 36.0198ZM41.157 34.5803L41.284 34.0736L37.5872 33.1473L37.4603 33.6539L41.157 34.5803ZM39.1263 36.0557C40.0712 36.1206 40.9268 35.499 41.157 34.5803L37.4603 33.6539C37.6788 32.7819 38.4908 32.192 39.3876 32.2536L39.1263 36.0557ZM39.7178 32.5958C41.354 33.6209 40.5315 36.1522 38.6053 36.0198L38.8666 32.2178C36.8371 32.0783 35.9705 34.7452 37.6944 35.8253L39.7178 32.5958ZM40.936 35.2603C41.2898 34.3817 40.963 33.376 40.1604 32.8731L38.137 36.1026C37.3752 35.6254 37.0651 34.6708 37.4008 33.8369L40.936 35.2603ZM37.8283 33.6286C39.3089 32.3893 41.4621 33.9537 40.741 35.7448L37.2057 34.3214C36.4459 36.2084 38.7146 37.8567 40.2745 36.551L37.8283 33.6286ZM40.7389 33.2934C40.0126 32.6854 38.9551 32.6855 38.2288 33.2934L40.675 36.2157C39.9857 36.7927 38.982 36.7927 38.2927 36.2157L40.7389 33.2934ZM38.2267 35.7448C37.5055 33.9537 39.6588 32.3893 41.1394 33.6286L38.6932 36.551C40.2531 37.8567 42.5217 36.2085 41.7619 34.3214L38.2267 35.7448ZM38.8073 32.8731C38.0047 33.376 37.6779 34.3817 38.0316 35.2603L41.5668 33.8369C41.9026 34.6707 41.5924 35.6254 40.8307 36.1026L38.8073 32.8731ZM40.3624 36.0198C38.4361 36.1522 37.6137 33.6209 39.2499 32.5958L41.2733 35.8253C42.9971 34.7453 42.1306 32.0783 40.1011 32.2178L40.3624 36.0198ZM37.8107 34.5803C38.0409 35.499 38.8965 36.1206 39.8413 36.0557L39.58 32.2536C40.4768 32.192 41.2889 32.7819 41.5074 33.6539L37.8107 34.5803ZM41.3804 33.1473C40.8859 31.174 38.0817 31.174 37.5872 33.1473L41.284 34.0736C40.8146 35.9466 38.153 35.9465 37.6837 34.0736L41.3804 33.1473Z" fill="white" mask="url(#path-10-inside-3_0_1)"/>
</g>
<g id="Star 15">
<mask id="path-12-inside-4_0_1" fill="white">
<path d="M35.4581 31.5216C35.4706 31.4714 35.542 31.4714 35.5545 31.5216L35.6815 32.0282C35.6873 32.0516 35.7091 32.0674 35.7331 32.0658L36.2542 32.0299C36.3058 32.0264 36.3279 32.0942 36.284 32.1217L35.8414 32.399C35.821 32.4118 35.8127 32.4374 35.8217 32.4597L36.0168 32.9442C36.0361 32.9922 35.9784 33.0341 35.9387 33.0009L35.5382 32.6657C35.5197 32.6502 35.4928 32.6502 35.4744 32.6657L35.0739 33.0009C35.0342 33.0341 34.9765 32.9922 34.9958 32.9442L35.1909 32.4597C35.1999 32.4374 35.1916 32.4118 35.1712 32.399L34.7286 32.1217C34.6847 32.0942 34.7068 32.0264 34.7584 32.0299L35.2794 32.0658C35.3035 32.0674 35.3252 32.0516 35.3311 32.0282L35.4581 31.5216Z"/>
</mask>
<path d="M35.3311 32.0282L37.1795 32.4914L35.3311 32.0282ZM34.7286 32.1217L33.7169 33.7365L34.7286 32.1217ZM34.7584 32.0299L34.889 30.1289L34.7584 32.0299ZM35.1909 32.4597L33.4233 31.748L35.1909 32.4597ZM35.1712 32.399L34.1595 34.0138L35.1712 32.399ZM35.5382 32.6657L36.7613 31.2045L35.5382 32.6657ZM35.4744 32.6657L34.2513 31.2045L35.4744 32.6657ZM36.0168 32.9442L37.7844 32.2325L36.0168 32.9442ZM35.9387 33.0009L34.7156 34.4621L35.9387 33.0009ZM35.8414 32.399L34.8297 30.7842L35.8414 32.399ZM35.8217 32.4597L37.5893 31.748L35.8217 32.4597ZM36.284 32.1217L35.2723 30.5069L36.284 32.1217ZM35.6815 32.0282L33.8331 32.4914L35.6815 32.0282ZM35.7331 32.0658L35.8638 33.9668L35.7331 32.0658ZM35.4581 31.5216L33.6097 31.0584V31.0584L35.4581 31.5216ZM33.7062 31.9848L33.8331 32.4914L37.5299 31.565L37.4029 31.0584L33.7062 31.9848ZM35.8638 33.9668L36.3849 33.931L36.1236 30.1289L35.6025 30.1647L35.8638 33.9668ZM35.2723 30.5069L34.8297 30.7842L36.8531 34.0138L37.2957 33.7365L35.2723 30.5069ZM34.0541 33.1714L34.2492 33.6559L37.7844 32.2325L37.5893 31.748L34.0541 33.1714ZM37.1618 31.5398L36.7613 31.2045L34.3151 34.1268L34.7156 34.4621L37.1618 31.5398ZM34.2513 31.2045L33.8508 31.5398L36.297 34.4621L36.6975 34.1268L34.2513 31.2045ZM36.7634 33.6559L36.9585 33.1714L33.4233 31.748L33.2282 32.2325L36.7634 33.6559ZM36.1829 30.7842L35.7403 30.5069L33.7169 33.7365L34.1595 34.0138L36.1829 30.7842ZM34.6277 33.931L35.1488 33.9668L35.4101 30.1647L34.889 30.1289L34.6277 33.931ZM37.1795 32.4914L37.3064 31.9848L33.6097 31.0584L33.4827 31.565L37.1795 32.4914ZM35.1488 33.9668C36.0937 34.0317 36.9492 33.4101 37.1795 32.4914L33.4827 31.565C33.7012 30.6931 34.5133 30.1031 35.4101 30.1647L35.1488 33.9668ZM35.7403 30.5069C37.3765 31.5321 36.554 34.0634 34.6277 33.931L34.889 30.1289C32.8595 29.9894 31.9929 32.6564 33.7169 33.7365L35.7403 30.5069ZM36.9585 33.1714C37.3123 32.2929 36.9855 31.2871 36.1829 30.7842L34.1595 34.0138C33.3977 33.5365 33.0875 32.5819 33.4233 31.748L36.9585 33.1714ZM33.8508 31.5398C35.3314 30.3004 37.4846 31.8649 36.7634 33.6559L33.2282 32.2325C32.4684 34.1196 34.737 35.7679 36.297 34.4621L33.8508 31.5398ZM36.7613 31.2045C36.0351 30.5966 34.9775 30.5966 34.2513 31.2045L36.6975 34.1268C36.0082 34.7038 35.0044 34.7038 34.3151 34.1268L36.7613 31.2045ZM34.2492 33.6559C33.528 31.8648 35.6813 30.3004 37.1618 31.5398L34.7156 34.4621C36.2755 35.7678 38.5442 34.1196 37.7844 32.2325L34.2492 33.6559ZM34.8297 30.7842C34.0271 31.2871 33.7003 32.2929 34.0541 33.1714L37.5893 31.748C37.9251 32.5819 37.6149 33.5365 36.8531 34.0138L34.8297 30.7842ZM36.3849 33.931C34.4586 34.0634 33.6361 31.5321 35.2723 30.5069L37.2957 33.7365C39.0196 32.6564 38.1531 29.9894 36.1236 30.1289L36.3849 33.931ZM33.8331 32.4914C34.0634 33.4101 34.9189 34.0317 35.8638 33.9668L35.6025 30.1647C36.4993 30.1031 37.3113 30.6931 37.5299 31.565L33.8331 32.4914ZM37.4029 31.0584C36.9084 29.0851 34.1042 29.0851 33.6097 31.0584L37.3064 31.9848C36.8371 33.8577 34.1755 33.8577 33.7062 31.9848L37.4029 31.0584Z" fill="white" mask="url(#path-12-inside-4_0_1)"/>
</g>
<g id="Star 16">
<mask id="path-14-inside-5_0_1" fill="white">
<path d="M33.3702 29.0348C33.3827 28.9846 33.4541 28.9846 33.4666 29.0348L33.5936 29.5414C33.5995 29.5648 33.6212 29.5806 33.6452 29.5789L34.1663 29.5431C34.2179 29.5396 34.24 29.6074 34.1961 29.6349L33.7535 29.9122C33.7331 29.925 33.7248 29.9506 33.7338 29.9729L33.9289 30.4574C33.9482 30.5054 33.8905 30.5473 33.8508 30.5141L33.4503 30.1789C33.4319 30.1634 33.405 30.1634 33.3865 30.1789L32.986 30.5141C32.9463 30.5473 32.8886 30.5054 32.9079 30.4574L33.103 29.9729C33.112 29.9506 33.1037 29.925 33.0833 29.9122L32.6407 29.6349C32.5968 29.6074 32.6189 29.5396 32.6705 29.5431L33.1916 29.5789C33.2156 29.5806 33.2373 29.5648 33.2432 29.5414L33.3702 29.0348Z"/>
</mask>
<path d="M33.2432 29.5414L35.0916 30.0046L33.2432 29.5414ZM32.6407 29.6349L31.629 31.2496L32.6407 29.6349ZM32.6705 29.5431L32.8011 27.6421L32.6705 29.5431ZM33.103 29.9729L31.3354 29.2612L33.103 29.9729ZM33.0833 29.9122L32.0716 31.5269L33.0833 29.9122ZM33.4503 30.1789L34.6734 28.7177L33.4503 30.1789ZM33.3865 30.1789L32.1634 28.7177L33.3865 30.1789ZM33.9289 30.4574L35.6965 29.7457L33.9289 30.4574ZM33.8508 30.5141L32.6277 31.9753L33.8508 30.5141ZM33.7535 29.9122L32.7418 28.2974L33.7535 29.9122ZM33.7338 29.9729L35.5014 29.2612L33.7338 29.9729ZM34.1961 29.6349L33.1844 28.0201L34.1961 29.6349ZM33.5936 29.5414L31.7452 30.0046L33.5936 29.5414ZM33.6452 29.5789L33.7759 31.48L33.6452 29.5789ZM33.3702 29.0348L31.5218 28.5716V28.5716L33.3702 29.0348ZM31.6183 29.498L31.7452 30.0046L35.442 29.0782L35.315 28.5716L31.6183 29.498ZM33.7759 31.48L34.297 31.4442L34.0357 27.6421L33.5146 27.6779L33.7759 31.48ZM33.1844 28.0201L32.7418 28.2974L34.7652 31.5269L35.2078 31.2496L33.1844 28.0201ZM31.9662 30.6846L32.1613 31.1691L35.6965 29.7457L35.5014 29.2612L31.9662 30.6846ZM35.0739 29.0529L34.6734 28.7177L32.2272 31.64L32.6277 31.9753L35.0739 29.0529ZM32.1634 28.7177L31.7629 29.0529L34.2091 31.9753L34.6096 31.64L32.1634 28.7177ZM34.6755 31.1691L34.8706 30.6846L31.3354 29.2612L31.1403 29.7457L34.6755 31.1691ZM34.095 28.2974L33.6524 28.0201L31.629 31.2496L32.0716 31.5269L34.095 28.2974ZM32.5398 31.4442L33.0609 31.48L33.3222 27.6779L32.8011 27.6421L32.5398 31.4442ZM35.0916 30.0046L35.2185 29.498L31.5218 28.5716L31.3948 29.0782L35.0916 30.0046ZM33.0609 31.48C34.0058 31.5449 34.8613 30.9233 35.0916 30.0046L31.3948 29.0782C31.6134 28.2063 32.4254 27.6163 33.3222 27.6779L33.0609 31.48ZM33.6524 28.0201C35.2886 29.0453 34.4661 31.5765 32.5398 31.4442L32.8011 27.6421C30.7716 27.5026 29.9051 30.1696 31.629 31.2496L33.6524 28.0201ZM34.8706 30.6846C35.2244 29.806 34.8976 28.8003 34.095 28.2974L32.0716 31.5269C31.3098 31.0497 30.9996 30.0951 31.3354 29.2612L34.8706 30.6846ZM31.7629 29.0529C33.2435 27.8136 35.3967 29.3781 34.6755 31.1691L31.1403 29.7457C30.3805 31.6328 32.6491 33.2811 34.2091 31.9753L31.7629 29.0529ZM34.6734 28.7177C33.9472 28.1098 32.8896 28.1098 32.1634 28.7177L34.6096 31.64C33.9203 32.217 32.9165 32.217 32.2272 31.64L34.6734 28.7177ZM32.1613 31.1691C31.4401 29.378 33.5934 27.8136 35.0739 29.0529L32.6277 31.9753C34.1876 33.281 36.4563 31.6328 35.6965 29.7457L32.1613 31.1691ZM32.7418 28.2974C31.9392 28.8003 31.6124 29.806 31.9662 30.6846L35.5014 29.2612C35.8372 30.0951 35.527 31.0497 34.7652 31.5269L32.7418 28.2974ZM34.297 31.4442C32.3707 31.5765 31.5482 29.0452 33.1844 28.0201L35.2078 31.2496C36.9317 30.1696 36.0652 27.5026 34.0357 27.6421L34.297 31.4442ZM31.7452 30.0046C31.9755 30.9233 32.831 31.5449 33.7759 31.48L33.5146 27.6779C34.4114 27.6163 35.2235 28.2063 35.442 29.0782L31.7452 30.0046ZM35.315 28.5716C34.8205 26.5983 32.0163 26.5983 31.5218 28.5716L35.2185 29.498C34.7492 31.3709 32.0876 31.3709 31.6183 29.498L35.315 28.5716Z" fill="white" mask="url(#path-14-inside-5_0_1)"/>
</g>
<g id="Star 17">
<mask id="path-16-inside-6_0_1" fill="white">
<path d="M33.8663 26.6481C33.8788 26.5979 33.9502 26.5979 33.9627 26.6481L34.0897 27.1547C34.0956 27.1781 34.1173 27.1939 34.1413 27.1922L34.6624 27.1564C34.714 27.1529 34.7361 27.2207 34.6922 27.2482L34.2496 27.5255C34.2292 27.5383 34.2209 27.5638 34.2299 27.5862L34.425 28.0707C34.4443 28.1187 34.3866 28.1606 34.3469 28.1274L33.9464 27.7921C33.9279 27.7767 33.901 27.7767 33.8826 27.7921L33.4821 28.1274C33.4424 28.1606 33.3847 28.1187 33.404 28.0707L33.5991 27.5862C33.6081 27.5638 33.5998 27.5383 33.5794 27.5255L33.1368 27.2482C33.0929 27.2207 33.115 27.1529 33.1666 27.1564L33.6877 27.1922C33.7117 27.1939 33.7334 27.1781 33.7393 27.1547L33.8663 26.6481Z"/>
</mask>
<path d="M33.7393 27.1547L35.5877 27.6179L33.7393 27.1547ZM33.1368 27.2482L32.1251 28.8629L33.1368 27.2482ZM33.1666 27.1564L33.2972 25.2554L33.1666 27.1564ZM33.5991 27.5862L31.8315 26.8745L33.5991 27.5862ZM33.5794 27.5255L32.5677 29.1402L33.5794 27.5255ZM33.9464 27.7921L35.1695 26.331L33.9464 27.7921ZM33.8826 27.7921L32.6595 26.331L33.8826 27.7921ZM34.425 28.0707L36.1926 27.359L34.425 28.0707ZM34.3469 28.1274L33.1238 29.5886L34.3469 28.1274ZM34.2496 27.5255L33.2379 25.9107L34.2496 27.5255ZM34.2299 27.5862L35.9975 26.8745L34.2299 27.5862ZM34.6922 27.2482L33.6805 25.6334L34.6922 27.2482ZM34.0897 27.1547L32.2413 27.6179L34.0897 27.1547ZM34.1413 27.1922L34.272 29.0933L34.1413 27.1922ZM33.8663 26.6481L32.0179 26.1849V26.1849L33.8663 26.6481ZM32.1144 27.1112L32.2413 27.6179L35.9381 26.6915L35.8111 26.1849L32.1144 27.1112ZM34.272 29.0933L34.7931 29.0574L34.5318 25.2554L34.0107 25.2912L34.272 29.0933ZM33.6805 25.6334L33.2379 25.9107L35.2613 29.1402L35.7039 28.8629L33.6805 25.6334ZM32.4623 28.2979L32.6574 28.7824L36.1926 27.359L35.9975 26.8745L32.4623 28.2979ZM35.57 26.6662L35.1695 26.331L32.7233 29.2533L33.1238 29.5886L35.57 26.6662ZM32.6595 26.331L32.259 26.6662L34.7052 29.5886L35.1057 29.2533L32.6595 26.331ZM35.1716 28.7824L35.3667 28.2979L31.8315 26.8745L31.6364 27.359L35.1716 28.7824ZM34.5911 25.9107L34.1485 25.6334L32.1251 28.8629L32.5677 29.1402L34.5911 25.9107ZM33.0359 29.0574L33.557 29.0933L33.8183 25.2912L33.2972 25.2554L33.0359 29.0574ZM35.5877 27.6179L35.7146 27.1112L32.0179 26.1849L31.8909 26.6915L35.5877 27.6179ZM33.557 29.0933C34.5019 29.1582 35.3574 28.5366 35.5877 27.6179L31.8909 26.6915C32.1094 25.8195 32.9215 25.2296 33.8183 25.2912L33.557 29.0933ZM34.1485 25.6334C35.7847 26.6585 34.9622 29.1898 33.0359 29.0574L33.2972 25.2554C31.2677 25.1159 30.4012 27.7828 32.1251 28.8629L34.1485 25.6334ZM35.3667 28.2979C35.7205 27.4193 35.3937 26.4136 34.5911 25.9107L32.5677 29.1402C31.8059 28.663 31.4957 27.7083 31.8315 26.8745L35.3667 28.2979ZM32.259 26.6662C33.7396 25.4269 35.8928 26.9913 35.1716 28.7824L31.6364 27.359C30.8766 29.246 33.1452 30.8943 34.7052 29.5886L32.259 26.6662ZM35.1695 26.331C34.4433 25.723 33.3857 25.723 32.6595 26.331L35.1057 29.2533C34.4164 29.8303 33.4126 29.8303 32.7233 29.2533L35.1695 26.331ZM32.6574 28.7824C31.9362 26.9913 34.0895 25.4269 35.57 26.6662L33.1238 29.5886C34.6837 30.8943 36.9524 29.2461 36.1926 27.359L32.6574 28.7824ZM33.2379 25.9107C32.4353 26.4136 32.1085 27.4193 32.4623 28.2979L35.9975 26.8745C36.3333 27.7083 36.0231 28.663 35.2613 29.1402L33.2379 25.9107ZM34.7931 29.0574C32.8668 29.1898 32.0443 26.6585 33.6805 25.6334L35.7039 28.8629C37.4278 27.7829 36.5613 25.1159 34.5318 25.2554L34.7931 29.0574ZM32.2413 27.6179C32.4716 28.5366 33.3271 29.1582 34.272 29.0933L34.0107 25.2912C34.9075 25.2296 35.7195 25.8195 35.9381 26.6915L32.2413 27.6179ZM35.8111 26.1849C35.3166 24.2116 32.5124 24.2116 32.0179 26.1849L35.7146 27.1112C35.2453 28.9842 32.5837 28.9841 32.1144 27.1112L35.8111 26.1849Z" fill="white" mask="url(#path-16-inside-6_0_1)"/>
</g>
<g id="Star 18">
<mask id="path-18-inside-7_0_1" fill="white">
<path d="M36.1534 28.6378C36.1659 28.5876 36.2373 28.5876 36.2498 28.6378L36.3768 29.1444C36.3827 29.1678 36.4044 29.1836 36.4285 29.182L36.9495 29.1462C37.0011 29.1426 37.0232 29.2104 36.9793 29.2379L36.5367 29.5152C36.5163 29.528 36.508 29.5536 36.517 29.5759L36.7121 30.0604C36.7314 30.1084 36.6737 30.1504 36.634 30.1171L36.2335 29.7819C36.2151 29.7664 36.1882 29.7664 36.1697 29.7819L35.7692 30.1171C35.7295 30.1504 35.6718 30.1084 35.6911 30.0604L35.8862 29.5759C35.8952 29.5536 35.8869 29.528 35.8665 29.5152L35.4239 29.2379C35.38 29.2104 35.4021 29.1426 35.4537 29.1462L35.9748 29.182C35.9988 29.1836 36.0206 29.1678 36.0264 29.1444L36.1534 28.6378Z"/>
</mask>
<path d="M36.0264 29.1444L37.8748 29.6076L36.0264 29.1444ZM35.4239 29.2379L34.4122 30.8527L35.4239 29.2379ZM35.4537 29.1462L35.5843 27.2451L35.4537 29.1462ZM35.8862 29.5759L34.1186 28.8642L35.8862 29.5759ZM35.8665 29.5152L34.8548 31.13L35.8665 29.5152ZM36.2335 29.7819L37.4566 28.3207L36.2335 29.7819ZM36.1697 29.7819L34.9466 28.3207L36.1697 29.7819ZM36.7121 30.0604L38.4797 29.3487L36.7121 30.0604ZM36.634 30.1171L35.4109 31.5783L36.634 30.1171ZM36.5367 29.5152L35.525 27.9005L36.5367 29.5152ZM36.517 29.5759L38.2846 28.8642L36.517 29.5759ZM36.9793 29.2379L35.9676 27.6231L36.9793 29.2379ZM36.3768 29.1444L34.5284 29.6076L36.3768 29.1444ZM36.4285 29.182L36.5591 31.083L36.4285 29.182ZM36.1534 28.6378L34.305 28.1746V28.1746L36.1534 28.6378ZM34.4015 29.101L34.5284 29.6076L38.2252 28.6813L38.0982 28.1746L34.4015 29.101ZM36.5591 31.083L37.0802 31.0472L36.8189 27.2451L36.2978 27.2809L36.5591 31.083ZM35.9676 27.6231L35.525 27.9005L37.5484 31.13L37.991 30.8527L35.9676 27.6231ZM34.7494 30.2876L34.9445 30.7721L38.4797 29.3487L38.2846 28.8642L34.7494 30.2876ZM37.8571 28.656L37.4566 28.3207L35.0104 31.2431L35.4109 31.5783L37.8571 28.656ZM34.9466 28.3207L34.5461 28.656L36.9923 31.5783L37.3928 31.2431L34.9466 28.3207ZM37.4587 30.7721L37.6538 30.2876L34.1186 28.8642L33.9235 29.3487L37.4587 30.7721ZM36.8782 27.9005L36.4356 27.6231L34.4122 30.8527L34.8548 31.13L36.8782 27.9005ZM35.323 31.0472L35.8441 31.083L36.1054 27.2809L35.5843 27.2451L35.323 31.0472ZM37.8748 29.6076L38.0017 29.101L34.305 28.1746L34.178 28.6813L37.8748 29.6076ZM35.8441 31.083C36.789 31.1479 37.6445 30.5263 37.8748 29.6076L34.178 28.6813C34.3966 27.8093 35.2086 27.2193 36.1054 27.2809L35.8441 31.083ZM36.4356 27.6231C38.0718 28.6483 37.2493 31.1796 35.323 31.0472L35.5843 27.2451C33.5548 27.1056 32.6883 29.7726 34.4122 30.8527L36.4356 27.6231ZM37.6538 30.2876C38.0076 29.4091 37.6808 28.4033 36.8782 27.9005L34.8548 31.13C34.093 30.6527 33.7828 29.6981 34.1186 28.8642L37.6538 30.2876ZM34.5461 28.656C36.0267 27.4166 38.1799 28.9811 37.4587 30.7721L33.9235 29.3487C33.1637 31.2358 35.4323 32.8841 36.9923 31.5783L34.5461 28.656ZM37.4566 28.3207C36.7304 27.7128 35.6728 27.7128 34.9466 28.3207L37.3928 31.2431C36.7035 31.8201 35.6997 31.8201 35.0104 31.2431L37.4566 28.3207ZM34.9445 30.7721C34.2233 28.981 36.3766 27.4166 37.8571 28.656L35.4109 31.5783C36.9708 32.8841 39.2395 31.2358 38.4797 29.3487L34.9445 30.7721ZM35.525 27.9005C34.7224 28.4033 34.3956 29.4091 34.7494 30.2876L38.2846 28.8642C38.6204 29.6981 38.3102 30.6527 37.5484 31.13L35.525 27.9005ZM37.0802 31.0472C35.1539 31.1796 34.3314 28.6483 35.9676 27.6231L37.991 30.8527C39.7149 29.7726 38.8484 27.1056 36.8189 27.2451L37.0802 31.0472ZM34.5284 29.6076C34.7587 30.5263 35.6142 31.1479 36.5591 31.083L36.2978 27.2809C37.1946 27.2193 38.0067 27.8093 38.2252 28.6813L34.5284 29.6076ZM38.0982 28.1746C37.6037 26.2013 34.7995 26.2013 34.305 28.1746L38.0017 29.101C37.5324 30.9739 34.8708 30.9739 34.4015 29.101L38.0982 28.1746Z" fill="white" mask="url(#path-18-inside-7_0_1)"/>
</g>
<g id="Star 19">
<mask id="path-20-inside-8_0_1" fill="white">
<path d="M40.629 29.5328C40.6415 29.4826 40.7129 29.4826 40.7254 29.5328L40.8524 30.0395C40.8582 30.0628 40.88 30.0786 40.904 30.077L41.4251 30.0412C41.4767 30.0376 41.4988 30.1055 41.4549 30.1329L41.0123 30.4102C40.9919 30.423 40.9836 30.4486 40.9926 30.4709L41.1877 30.9555C41.207 31.0034 41.1493 31.0454 41.1096 31.0122L40.7091 30.6769C40.6906 30.6614 40.6637 30.6614 40.6453 30.6769L40.2448 31.0122C40.2051 31.0454 40.1474 31.0034 40.1667 30.9555L40.3618 30.4709C40.3708 30.4486 40.3625 30.423 40.3421 30.4102L39.8995 30.1329C39.8556 30.1055 39.8777 30.0376 39.9293 30.0412L40.4503 30.077C40.4744 30.0786 40.4961 30.0628 40.502 30.0395L40.629 29.5328Z"/>
</mask>
<path d="M40.502 30.0395L42.3504 30.5027L40.502 30.0395ZM39.8995 30.1329L38.8878 31.7477L39.8995 30.1329ZM39.9293 30.0412L40.0599 28.1401L39.9293 30.0412ZM40.3618 30.4709L38.5942 29.7592L40.3618 30.4709ZM40.3421 30.4102L39.3304 32.025L40.3421 30.4102ZM40.7091 30.6769L41.9322 29.2157L40.7091 30.6769ZM40.6453 30.6769L39.4222 29.2157L40.6453 30.6769ZM41.1877 30.9555L42.9553 30.2437L41.1877 30.9555ZM41.1096 31.0122L39.8865 32.4733L41.1096 31.0122ZM41.0123 30.4102L40.0006 28.7955L41.0123 30.4102ZM40.9926 30.4709L42.7602 29.7592L40.9926 30.4709ZM41.4549 30.1329L40.4432 28.5182L41.4549 30.1329ZM40.8524 30.0395L39.004 30.5027L40.8524 30.0395ZM40.904 30.077L41.0347 31.978L40.904 30.077ZM40.629 29.5328L38.7806 29.0696V29.0696L40.629 29.5328ZM38.8771 29.996L39.004 30.5027L42.7008 29.5763L42.5738 29.0696L38.8771 29.996ZM41.0347 31.978L41.5558 31.9422L41.2945 28.1401L40.7734 28.176L41.0347 31.978ZM40.4432 28.5182L40.0006 28.7955L42.024 32.025L42.4666 31.7477L40.4432 28.5182ZM39.225 31.1827L39.4201 31.6672L42.9553 30.2437L42.7602 29.7592L39.225 31.1827ZM42.3327 29.551L41.9322 29.2157L39.486 32.1381L39.8865 32.4733L42.3327 29.551ZM39.4222 29.2157L39.0217 29.551L41.4679 32.4733L41.8684 32.1381L39.4222 29.2157ZM41.9343 31.6672L42.1294 31.1827L38.5942 29.7592L38.3991 30.2437L41.9343 31.6672ZM41.3538 28.7955L40.9112 28.5182L38.8878 31.7477L39.3304 32.025L41.3538 28.7955ZM39.7986 31.9422L40.3197 31.978L40.581 28.176L40.0599 28.1401L39.7986 31.9422ZM42.3504 30.5027L42.4773 29.996L38.7806 29.0696L38.6536 29.5763L42.3504 30.5027ZM40.3197 31.978C41.2646 32.043 42.1201 31.4214 42.3504 30.5027L38.6536 29.5763C38.8721 28.7043 39.6842 28.1143 40.581 28.176L40.3197 31.978ZM40.9112 28.5182C42.5474 29.5433 41.7249 32.0746 39.7986 31.9422L40.0599 28.1401C38.0304 28.0007 37.1638 30.6676 38.8878 31.7477L40.9112 28.5182ZM42.1294 31.1827C42.4832 30.3041 42.1564 29.2983 41.3538 28.7955L39.3304 32.025C38.5686 31.5477 38.2584 30.5931 38.5942 29.7592L42.1294 31.1827ZM39.0217 29.551C40.5023 28.3116 42.6555 29.8761 41.9343 31.6672L38.3991 30.2437C37.6393 32.1308 39.9079 33.7791 41.4679 32.4733L39.0217 29.551ZM41.9322 29.2157C41.206 28.6078 40.1484 28.6078 39.4222 29.2157L41.8684 32.1381C41.1791 32.7151 40.1753 32.7151 39.486 32.1381L41.9322 29.2157ZM39.4201 31.6672C38.6989 29.8761 40.8522 28.3117 42.3327 29.551L39.8865 32.4733C41.4464 33.7791 43.7151 32.1308 42.9553 30.2437L39.4201 31.6672ZM40.0006 28.7955C39.198 29.2983 38.8712 30.3041 39.225 31.1827L42.7602 29.7592C43.096 30.5931 42.7858 31.5477 42.024 32.025L40.0006 28.7955ZM41.5558 31.9422C39.6295 32.0746 38.807 29.5433 40.4432 28.5182L42.4666 31.7477C44.1905 30.6676 43.324 28.0007 41.2945 28.1401L41.5558 31.9422ZM39.004 30.5027C39.2343 31.4214 40.0898 32.043 41.0347 31.978L40.7734 28.176C41.6702 28.1143 42.4822 28.7043 42.7008 29.5763L39.004 30.5027ZM42.5738 29.0696C42.0793 27.0964 39.2751 27.0963 38.7806 29.0696L42.4773 29.996C42.008 31.8689 39.3464 31.8689 38.8771 29.996L42.5738 29.0696Z" fill="white" mask="url(#path-20-inside-8_0_1)"/>
</g>
<g id="Star 20">
<mask id="path-22-inside-9_0_1" fill="white">
<path d="M46.0997 33.7091C46.1122 33.6589 46.1836 33.6589 46.1961 33.7091L46.3231 34.2157C46.3289 34.2391 46.3507 34.2549 46.3747 34.2533L46.8958 34.2174C46.9474 34.2139 46.9695 34.2817 46.9256 34.3092L46.483 34.5865C46.4626 34.5993 46.4543 34.6249 46.4633 34.6472L46.6584 35.1317C46.6777 35.1797 46.62 35.2216 46.5803 35.1884L46.1798 34.8532C46.1613 34.8377 46.1344 34.8377 46.116 34.8532L45.7155 35.1884C45.6758 35.2216 45.6181 35.1797 45.6374 35.1317L45.8325 34.6472C45.8415 34.6249 45.8332 34.5993 45.8128 34.5865L45.3702 34.3092C45.3263 34.2817 45.3484 34.2139 45.4 34.2174L45.921 34.2533C45.9451 34.2549 45.9668 34.2391 45.9727 34.2157L46.0997 33.7091Z"/>
</mask>
<path d="M45.9727 34.2157L47.8211 34.6789L45.9727 34.2157ZM45.3702 34.3092L44.3585 35.924L45.3702 34.3092ZM45.4 34.2174L45.5306 32.3164L45.4 34.2174ZM45.8325 34.6472L44.0649 33.9355L45.8325 34.6472ZM45.8128 34.5865L44.8011 36.2013L45.8128 34.5865ZM46.1798 34.8532L47.4029 33.392L46.1798 34.8532ZM46.116 34.8532L44.8929 33.392L46.116 34.8532ZM46.6584 35.1317L48.426 34.42L46.6584 35.1317ZM46.5803 35.1884L45.3572 36.6496L46.5803 35.1884ZM46.483 34.5865L45.4713 32.9717L46.483 34.5865ZM46.4633 34.6472L48.2309 33.9355L46.4633 34.6472ZM46.9256 34.3092L45.9139 32.6944L46.9256 34.3092ZM46.3231 34.2157L44.4747 34.6789L46.3231 34.2157ZM46.3747 34.2533L46.5054 36.1543L46.3747 34.2533ZM46.0997 33.7091L44.2513 33.2459V33.2459L46.0997 33.7091ZM44.3478 34.1723L44.4747 34.6789L48.1715 33.7525L48.0445 33.2459L44.3478 34.1723ZM46.5054 36.1543L47.0265 36.1185L46.7652 32.3164L46.2441 32.3522L46.5054 36.1543ZM45.9139 32.6944L45.4713 32.9717L47.4947 36.2013L47.9373 35.924L45.9139 32.6944ZM44.6957 35.3589L44.8908 35.8434L48.426 34.42L48.2309 33.9355L44.6957 35.3589ZM47.8034 33.7273L47.4029 33.392L44.9567 36.3143L45.3572 36.6496L47.8034 33.7273ZM44.8929 33.392L44.4924 33.7273L46.9386 36.6496L47.3391 36.3143L44.8929 33.392ZM47.405 35.8434L47.6001 35.3589L44.0649 33.9355L43.8698 34.42L47.405 35.8434ZM46.8245 32.9717L46.3819 32.6944L44.3585 35.924L44.8011 36.2013L46.8245 32.9717ZM45.2693 36.1185L45.7904 36.1543L46.0517 32.3522L45.5306 32.3164L45.2693 36.1185ZM47.8211 34.6789L47.948 34.1723L44.2513 33.2459L44.1243 33.7525L47.8211 34.6789ZM45.7904 36.1543C46.7353 36.2192 47.5908 35.5976 47.8211 34.6789L44.1243 33.7525C44.3428 32.8806 45.1549 32.2906 46.0517 32.3522L45.7904 36.1543ZM46.3819 32.6944C48.0181 33.7196 47.1956 36.2509 45.2693 36.1185L45.5306 32.3164C43.5011 32.1769 42.6346 34.8439 44.3585 35.924L46.3819 32.6944ZM47.6001 35.3589C47.9539 34.4804 47.6271 33.4746 46.8245 32.9717L44.8011 36.2013C44.0393 35.724 43.7291 34.7694 44.0649 33.9355L47.6001 35.3589ZM44.4924 33.7273C45.973 32.4879 48.1262 34.0524 47.405 35.8434L43.8698 34.42C43.11 36.3071 45.3786 37.9554 46.9386 36.6496L44.4924 33.7273ZM47.4029 33.392C46.6767 32.7841 45.6191 32.7841 44.8929 33.392L47.3391 36.3143C46.6498 36.8913 45.646 36.8913 44.9567 36.3143L47.4029 33.392ZM44.8908 35.8434C44.1696 34.0523 46.3229 32.4879 47.8034 33.7273L45.3572 36.6496C46.9171 37.9553 49.1858 36.3071 48.426 34.42L44.8908 35.8434ZM45.4713 32.9717C44.6687 33.4746 44.3419 34.4804 44.6957 35.3589L48.2309 33.9355C48.5667 34.7694 48.2565 35.724 47.4947 36.2013L45.4713 32.9717ZM47.0265 36.1185C45.1002 36.2509 44.2777 33.7196 45.9139 32.6944L47.9373 35.924C49.6612 34.8439 48.7947 32.1769 46.7652 32.3164L47.0265 36.1185ZM44.4747 34.6789C44.705 35.5976 45.5605 36.2192 46.5054 36.1543L46.2441 32.3522C47.1409 32.2906 47.9529 32.8806 48.1715 33.7525L44.4747 34.6789ZM48.0445 33.2459C47.55 31.2726 44.7458 31.2726 44.2513 33.2459L47.948 34.1723C47.4787 36.0452 44.8171 36.0452 44.3478 34.1723L48.0445 33.2459Z" fill="white" mask="url(#path-22-inside-9_0_1)"/>
</g>
<g id="Star 21">
<mask id="path-24-inside-10_0_1" fill="white">
<path d="M48.2881 33.7091C48.3007 33.6589 48.372 33.6589 48.3846 33.7091L48.5116 34.2157C48.5174 34.2391 48.5392 34.2549 48.5632 34.2533L49.0843 34.2174C49.1359 34.2139 49.158 34.2817 49.1141 34.3092L48.6715 34.5865C48.6511 34.5993 48.6428 34.6249 48.6518 34.6472L48.8469 35.1317C48.8662 35.1797 48.8085 35.2216 48.7688 35.1884L48.3683 34.8532C48.3498 34.8377 48.3229 34.8377 48.3045 34.8532L47.9039 35.1884C47.8643 35.2216 47.8066 35.1797 47.8259 35.1317L48.021 34.6472C48.03 34.6249 48.0217 34.5993 48.0012 34.5865L47.5586 34.3092C47.5148 34.2817 47.5368 34.2139 47.5885 34.2174L48.1095 34.2533C48.1336 34.2549 48.1553 34.2391 48.1612 34.2157L48.2881 33.7091Z"/>
</mask>
<path d="M48.1612 34.2157L50.0095 34.6789L48.1612 34.2157ZM47.5586 34.3092L46.5469 35.924L47.5586 34.3092ZM47.5885 34.2174L47.7191 32.3164L47.5885 34.2174ZM48.021 34.6472L46.2534 33.9355L48.021 34.6472ZM48.0012 34.5865L46.9896 36.2013L48.0012 34.5865ZM48.3683 34.8532L49.5914 33.392L48.3683 34.8532ZM48.3045 34.8532L47.0814 33.392L48.3045 34.8532ZM48.8469 35.1317L50.6145 34.42L48.8469 35.1317ZM48.7688 35.1884L47.5457 36.6496L48.7688 35.1884ZM48.6715 34.5865L47.6598 32.9717L48.6715 34.5865ZM48.6518 34.6472L50.4194 33.9355L48.6518 34.6472ZM49.1141 34.3092L48.1024 32.6944L49.1141 34.3092ZM48.5116 34.2157L46.6632 34.6789L48.5116 34.2157ZM48.5632 34.2533L48.6939 36.1543L48.5632 34.2533ZM48.2881 33.7091L46.4398 33.2459V33.2459L48.2881 33.7091ZM46.5362 34.1723L46.6632 34.6789L50.3599 33.7525L50.233 33.2459L46.5362 34.1723ZM48.6939 36.1543L49.2149 36.1185L48.9536 32.3164L48.4326 32.3522L48.6939 36.1543ZM48.1024 32.6944L47.6598 32.9717L49.6832 36.2013L50.1258 35.924L48.1024 32.6944ZM46.8842 35.3589L47.0792 35.8434L50.6145 34.42L50.4194 33.9355L46.8842 35.3589ZM49.9919 33.7273L49.5914 33.392L47.1452 36.3143L47.5457 36.6496L49.9919 33.7273ZM47.0814 33.392L46.6808 33.7273L49.127 36.6496L49.5276 36.3143L47.0814 33.392ZM49.5935 35.8434L49.7886 35.3589L46.2534 33.9355L46.0583 34.42L49.5935 35.8434ZM49.0129 32.9717L48.5703 32.6944L46.5469 35.924L46.9896 36.2013L49.0129 32.9717ZM47.4578 36.1185L47.9789 36.1543L48.2402 32.3522L47.7191 32.3164L47.4578 36.1185ZM50.0095 34.6789L50.1365 34.1723L46.4398 33.2459L46.3128 33.7525L50.0095 34.6789ZM47.9789 36.1543C48.9238 36.2192 49.7793 35.5976 50.0095 34.6789L46.3128 33.7525C46.5313 32.8806 47.3434 32.2906 48.2402 32.3522L47.9789 36.1543ZM48.5703 32.6944C50.2066 33.7196 49.3841 36.2509 47.4578 36.1185L47.7191 32.3164C45.6896 32.1769 44.823 34.8439 46.5469 35.924L48.5703 32.6944ZM49.7886 35.3589C50.1423 34.4804 49.8155 33.4746 49.0129 32.9717L46.9896 36.2013C46.2278 35.724 45.9176 34.7694 46.2534 33.9355L49.7886 35.3589ZM46.6808 33.7273C48.1614 32.4879 50.3147 34.0524 49.5935 35.8434L46.0583 34.42C45.2985 36.3071 47.5671 37.9554 49.127 36.6496L46.6808 33.7273ZM49.5914 33.392C48.8651 32.7841 47.8076 32.7841 47.0814 33.392L49.5276 36.3143C48.8382 36.8913 47.8345 36.8913 47.1452 36.3143L49.5914 33.392ZM47.0792 35.8434C46.3581 34.0523 48.5113 32.4879 49.9919 33.7273L47.5457 36.6496C49.1056 37.9553 51.3743 36.3071 50.6145 34.42L47.0792 35.8434ZM47.6598 32.9717C46.8572 33.4746 46.5304 34.4804 46.8842 35.3589L50.4194 33.9355C50.7551 34.7694 50.445 35.724 49.6832 36.2013L47.6598 32.9717ZM49.2149 36.1185C47.2887 36.2509 46.4662 33.7196 48.1024 32.6944L50.1258 35.924C51.8497 34.8439 50.9832 32.1769 48.9536 32.3164L49.2149 36.1185ZM46.6632 34.6789C46.8934 35.5976 47.749 36.2192 48.6939 36.1543L48.4326 32.3522C49.3294 32.2906 50.1414 32.8806 50.3599 33.7525L46.6632 34.6789ZM50.233 33.2459C49.7385 31.2726 46.9343 31.2726 46.4398 33.2459L50.1365 34.1723C49.6671 36.0452 47.0056 36.0452 46.5362 34.1723L50.233 33.2459Z" fill="white" mask="url(#path-24-inside-10_0_1)"/>
</g>
<g id="Star 22">
<mask id="path-26-inside-11_0_1" fill="white">
<path d="M49.3829 31.4225C49.3954 31.3723 49.4668 31.3723 49.4793 31.4225L49.6063 31.9291C49.6122 31.9525 49.6339 31.9683 49.6579 31.9666L50.179 31.9308C50.2306 31.9273 50.2527 31.9951 50.2088 32.0226L49.7662 32.2999C49.7458 32.3127 49.7375 32.3383 49.7465 32.3606L49.9416 32.8451C49.9609 32.8931 49.9032 32.935 49.8635 32.9018L49.463 32.5666C49.4445 32.5511 49.4177 32.5511 49.3992 32.5666L48.9987 32.9018C48.959 32.935 48.9013 32.8931 48.9206 32.8451L49.1157 32.3606C49.1247 32.3383 49.1164 32.3127 49.096 32.2999L48.6534 32.0226C48.6095 31.9951 48.6316 31.9273 48.6832 31.9308L49.2043 31.9666C49.2283 31.9683 49.25 31.9525 49.2559 31.9291L49.3829 31.4225Z"/>
</mask>
<path d="M49.2559 31.9291L51.1043 32.3923L49.2559 31.9291ZM48.6534 32.0226L47.6417 33.6373L48.6534 32.0226ZM48.6832 31.9308L48.8138 30.0298L48.6832 31.9308ZM49.1157 32.3606L47.3481 31.6489L49.1157 32.3606ZM49.096 32.2999L48.0843 33.9146L49.096 32.2999ZM49.463 32.5666L50.6861 31.1054L49.463 32.5666ZM49.3992 32.5666L48.1761 31.1054L49.3992 32.5666ZM49.9416 32.8451L51.7092 32.1334L49.9416 32.8451ZM49.8635 32.9018L48.6404 34.363L49.8635 32.9018ZM49.7662 32.2999L48.7545 30.6851L49.7662 32.2999ZM49.7465 32.3606L51.5141 31.6489L49.7465 32.3606ZM50.2088 32.0226L49.1971 30.4078L50.2088 32.0226ZM49.6063 31.9291L47.7579 32.3923L49.6063 31.9291ZM49.6579 31.9666L49.7886 33.8677L49.6579 31.9666ZM49.3829 31.4225L47.5345 30.9593V30.9593L49.3829 31.4225ZM47.631 31.8857L47.7579 32.3923L51.4547 31.4659L51.3277 30.9593L47.631 31.8857ZM49.7886 33.8677L50.3097 33.8319L50.0484 30.0298L49.5273 30.0656L49.7886 33.8677ZM49.1971 30.4078L48.7545 30.6851L50.7779 33.9146L51.2205 33.6373L49.1971 30.4078ZM47.9789 33.0723L48.174 33.5568L51.7092 32.1334L51.5141 31.6489L47.9789 33.0723ZM51.0866 31.4406L50.6861 31.1054L48.2399 34.0277L48.6404 34.363L51.0866 31.4406ZM48.1761 31.1054L47.7756 31.4406L50.2218 34.363L50.6223 34.0277L48.1761 31.1054ZM50.6882 33.5568L50.8833 33.0723L47.3481 31.6489L47.153 32.1334L50.6882 33.5568ZM50.1077 30.6851L49.6651 30.4078L47.6417 33.6373L48.0843 33.9146L50.1077 30.6851ZM48.5525 33.8319L49.0736 33.8677L49.3349 30.0656L48.8138 30.0298L48.5525 33.8319ZM51.1043 32.3923L51.2312 31.8857L47.5345 30.9593L47.4075 31.4659L51.1043 32.3923ZM49.0736 33.8677C50.0185 33.9326 50.874 33.311 51.1043 32.3923L47.4075 31.4659C47.626 30.594 48.4381 30.004 49.3349 30.0656L49.0736 33.8677ZM49.6651 30.4078C51.3013 31.433 50.4788 33.9642 48.5525 33.8319L48.8138 30.0298C46.7843 29.8903 45.9178 32.5573 47.6417 33.6373L49.6651 30.4078ZM50.8833 33.0723C51.2371 32.1937 50.9103 31.188 50.1077 30.6851L48.0843 33.9146C47.3225 33.4374 47.0123 32.4828 47.3481 31.6489L50.8833 33.0723ZM47.7756 31.4406C49.2562 30.2013 51.4094 31.7657 50.6882 33.5568L47.153 32.1334C46.3932 34.0204 48.6618 35.6688 50.2218 34.363L47.7756 31.4406ZM50.6861 31.1054C49.9599 30.4975 48.9023 30.4975 48.1761 31.1054L50.6223 34.0277C49.933 34.6047 48.9292 34.6047 48.2399 34.0277L50.6861 31.1054ZM48.174 33.5568C47.4528 31.7657 49.6061 30.2013 51.0866 31.4406L48.6404 34.363C50.2003 35.6687 52.469 34.0205 51.7092 32.1334L48.174 33.5568ZM48.7545 30.6851C47.9519 31.188 47.6251 32.1937 47.9789 33.0723L51.5141 31.6489C51.8499 32.4828 51.5397 33.4374 50.7779 33.9146L48.7545 30.6851ZM50.3097 33.8319C48.3834 33.9642 47.5609 31.4329 49.1971 30.4078L51.2205 33.6373C52.9444 32.5573 52.0779 29.8903 50.0484 30.0298L50.3097 33.8319ZM47.7579 32.3923C47.9882 33.311 48.8437 33.9326 49.7886 33.8677L49.5273 30.0656C50.4241 30.004 51.2361 30.5939 51.4547 31.4659L47.7579 32.3923ZM51.3277 30.9593C50.8332 28.986 48.029 28.986 47.5345 30.9593L51.2312 31.8857C50.7619 33.7586 48.1003 33.7586 47.631 31.8857L51.3277 30.9593Z" fill="white" mask="url(#path-26-inside-11_0_1)"/>
</g>
</g>
</svg>
