<svg width="44" height="29" viewBox="0 0 44 29" fill="none" xmlns="http://www.w3.org/2000/svg">
<rect width="44" height="28.86" rx="3.13" fill="#F5F5F5"/>
<mask id="mask0_267_223" style="mask-type:alpha" maskUnits="userSpaceOnUse" x="0" y="0" width="44" height="29">
<rect width="44" height="28.86" rx="3.13" fill="#F5F5F5"/>
</mask>
<g mask="url(#mask0_267_223)">
<rect y="17.7031" width="44" height="2.32031" fill="#FF4B55"/>
<rect y="22.1719" width="44" height="2.23438" fill="#FF4B55"/>
<rect y="26.6406" width="44" height="2.23438" fill="#FF4B55"/>
<rect y="13.3203" width="44" height="2.23438" fill="#FF4B55"/>
<rect y="8.9375" width="44" height="2.23438" fill="#FF4B55"/>
<rect y="4.46875" width="44" height="2.23438" fill="#FF4B55"/>
<rect width="44" height="2.23438" fill="#FF4B55"/>
<path d="M0 3.13C0 1.40135 1.40135 0 3.13 0H19.6797C20.1543 0 20.5391 0.384755 20.5391 0.859375V14.6953C20.5391 15.1699 20.1543 15.5547 19.6797 15.5547H0V3.13Z" fill="#41479B"/>
</g>
<path d="M6.10383 1.66713C6.117 1.6282 6.17206 1.6282 6.18523 1.66713L6.37583 2.23026C6.38173 2.24771 6.39811 2.25945 6.41653 2.25945H7.02946C7.07151 2.25945 7.08853 2.31361 7.05404 2.33766L6.56123 2.68139C6.54555 2.69233 6.53898 2.7123 6.54511 2.73041L6.73405 3.28865C6.74735 3.32794 6.70278 3.3614 6.66877 3.33767L6.16911 2.98917C6.15434 2.97887 6.13472 2.97887 6.11995 2.98917L5.62029 3.33767C5.58628 3.3614 5.54172 3.32794 5.55501 3.28865L5.74395 2.73041C5.75008 2.7123 5.74351 2.69233 5.72784 2.68139L5.23502 2.33766C5.20054 2.31361 5.21756 2.25945 5.2596 2.25945H5.87253C5.89096 2.25945 5.90733 2.24771 5.91323 2.23026L6.10383 1.66713Z" fill="white"/>
<path d="M10.2288 1.66713C10.242 1.6282 10.2971 1.6282 10.3102 1.66713L10.5008 2.23026C10.5067 2.24771 10.5231 2.25945 10.5415 2.25945H11.1545C11.1965 2.25945 11.2135 2.31361 11.179 2.33766L10.6862 2.68139C10.6705 2.69233 10.664 2.7123 10.6701 2.73041L10.8591 3.28865C10.8723 3.32794 10.8278 3.3614 10.7938 3.33767L10.2941 2.98917C10.2793 2.97887 10.2597 2.97887 10.2449 2.98917L9.74529 3.33767C9.71128 3.3614 9.66672 3.32794 9.68001 3.28865L9.86895 2.73041C9.87508 2.7123 9.86851 2.69233 9.85284 2.68139L9.36002 2.33766C9.32554 2.31361 9.34256 2.25945 9.3846 2.25945H9.99753C10.016 2.25945 10.0323 2.24771 10.0382 2.23026L10.2288 1.66713Z" fill="white"/>
<path d="M14.3538 1.66713C14.367 1.6282 14.4221 1.6282 14.4352 1.66713L14.6258 2.23026C14.6317 2.24771 14.6481 2.25945 14.6665 2.25945H15.2795C15.3215 2.25945 15.3385 2.31361 15.304 2.33766L14.8112 2.68139C14.7955 2.69233 14.789 2.7123 14.7951 2.73041L14.9841 3.28865C14.9973 3.32794 14.9528 3.3614 14.9188 3.33767L14.4191 2.98917C14.4043 2.97887 14.3847 2.97887 14.3699 2.98917L13.8703 3.33767C13.8363 3.3614 13.7917 3.32794 13.805 3.28865L13.994 2.73041C14.0001 2.7123 13.9935 2.69233 13.9778 2.68139L13.485 2.33766C13.4505 2.31361 13.4676 2.25945 13.5096 2.25945H14.1225C14.141 2.25945 14.1573 2.24771 14.1632 2.23026L14.3538 1.66713Z" fill="white"/>
<path d="M12.2054 2.95619C12.2186 2.91727 12.2736 2.91727 12.2868 2.95619L12.4774 3.51932C12.4833 3.53677 12.4997 3.54851 12.5181 3.54851H13.131C13.1731 3.54851 13.1901 3.60267 13.1556 3.62673L12.6628 3.97045C12.6471 3.98139 12.6405 4.00137 12.6467 4.01947L12.8356 4.57772C12.8489 4.617 12.8043 4.65046 12.7703 4.62674L12.2707 4.27823C12.2559 4.26793 12.2363 4.26793 12.2215 4.27823L11.7219 4.62674C11.6878 4.65046 11.6433 4.617 11.6566 4.57772L11.8455 4.01947C11.8516 4.00137 11.8451 3.98139 11.8294 3.97045L11.3366 3.62673C11.3021 3.60267 11.3191 3.54851 11.3612 3.54851H11.9741C11.9925 3.54851 12.0089 3.53677 12.0148 3.51932L12.2054 2.95619Z" fill="white"/>
<path d="M16.3304 2.95619C16.3436 2.91727 16.3986 2.91727 16.4118 2.95619L16.6024 3.51932C16.6083 3.53677 16.6247 3.54851 16.6431 3.54851H17.256C17.2981 3.54851 17.3151 3.60267 17.2806 3.62673L16.7878 3.97045C16.7721 3.98139 16.7655 4.00137 16.7717 4.01947L16.9606 4.57772C16.9739 4.617 16.9293 4.65046 16.8953 4.62674L16.3957 4.27823C16.3809 4.26793 16.3613 4.26793 16.3465 4.27823L15.8469 4.62674C15.8128 4.65046 15.7683 4.617 15.7816 4.57772L15.9705 4.01947C15.9766 4.00137 15.9701 3.98139 15.9544 3.97045L15.4616 3.62673C15.4271 3.60267 15.4441 3.54851 15.4862 3.54851H16.0991C16.1175 3.54851 16.1339 3.53677 16.1398 3.51932L16.3304 2.95619Z" fill="white"/>
<path d="M8.16633 2.95619C8.1795 2.91727 8.23456 2.91727 8.24773 2.95619L8.43833 3.51932C8.44423 3.53677 8.46061 3.54851 8.47903 3.54851H9.09196C9.13401 3.54851 9.15103 3.60267 9.11654 3.62673L8.62373 3.97045C8.60805 3.98139 8.60148 4.00137 8.60761 4.01947L8.79655 4.57772C8.80985 4.617 8.76528 4.65046 8.73127 4.62674L8.23161 4.27823C8.21684 4.26793 8.19722 4.26793 8.18245 4.27823L7.68279 4.62674C7.64878 4.65046 7.60422 4.617 7.61751 4.57772L7.80645 4.01947C7.81258 4.00137 7.80601 3.98139 7.79034 3.97045L7.29752 3.62673C7.26304 3.60267 7.28006 3.54851 7.3221 3.54851H7.93503C7.95346 3.54851 7.96983 3.53677 7.97573 3.51932L8.16633 2.95619Z" fill="white"/>
<path d="M3.95539 2.95619C3.96857 2.91727 4.02362 2.91727 4.03679 2.95619L4.22739 3.51932C4.2333 3.53677 4.24967 3.54851 4.26809 3.54851H4.88102C4.92307 3.54851 4.94009 3.60267 4.9056 3.62673L4.41279 3.97045C4.39711 3.98139 4.39054 4.00137 4.39667 4.01947L4.58561 4.57772C4.59891 4.617 4.55434 4.65046 4.52033 4.62674L4.02068 4.27823C4.00591 4.26793 3.98628 4.26793 3.97151 4.27823L3.47186 4.62674C3.43784 4.65046 3.39328 4.617 3.40657 4.57772L3.59552 4.01947C3.60165 4.00137 3.59508 3.98139 3.5794 3.97045L3.08659 3.62673C3.0521 3.60267 3.06912 3.54851 3.11117 3.54851H3.7241C3.74252 3.54851 3.75889 3.53677 3.7648 3.51932L3.95539 2.95619Z" fill="white"/>
<path d="M18.4788 1.66713C18.492 1.6282 18.5471 1.6282 18.5602 1.66713L18.7508 2.23026C18.7567 2.24771 18.7731 2.25945 18.7915 2.25945H19.4045C19.4465 2.25945 19.4635 2.31361 19.429 2.33766L18.9362 2.68139C18.9205 2.69233 18.914 2.7123 18.9201 2.73041L19.1091 3.28865C19.1223 3.32794 19.0778 3.3614 19.0438 3.33767L18.5441 2.98917C18.5293 2.97887 18.5097 2.97887 18.4949 2.98917L17.9953 3.33767C17.9613 3.3614 17.9167 3.32794 17.93 3.28865L18.119 2.73041C18.1251 2.7123 18.1185 2.69233 18.1028 2.68139L17.61 2.33766C17.5755 2.31361 17.5926 2.25945 17.6346 2.25945H18.2475C18.266 2.25945 18.2823 2.24771 18.2882 2.23026L18.4788 1.66713Z" fill="white"/>
<path d="M1.97883 1.66713C1.992 1.6282 2.04706 1.6282 2.06023 1.66713L2.25083 2.23026C2.25673 2.24771 2.27311 2.25945 2.29153 2.25945H2.90446C2.94651 2.25945 2.96353 2.31361 2.92904 2.33766L2.43623 2.68139C2.42055 2.69233 2.41398 2.7123 2.42011 2.73041L2.60905 3.28865C2.62235 3.32794 2.57778 3.3614 2.54377 3.33767L2.04411 2.98917C2.02934 2.97887 2.00972 2.97887 1.99495 2.98917L1.49529 3.33767C1.46128 3.3614 1.41672 3.32794 1.43001 3.28865L1.61895 2.73041C1.62508 2.7123 1.61851 2.69233 1.60284 2.68139L1.11002 2.33766C1.07554 2.31361 1.09256 2.25945 1.1346 2.25945H1.74753C1.76596 2.25945 1.78233 2.24771 1.78823 2.23026L1.97883 1.66713Z" fill="white"/>
<path d="M6.10383 4.33119C6.117 4.29227 6.17206 4.29227 6.18523 4.33119L6.37583 4.89432C6.38173 4.91177 6.39811 4.92351 6.41653 4.92351H7.02946C7.07151 4.92351 7.08853 4.97767 7.05404 5.00173L6.56123 5.34545C6.54555 5.35639 6.53898 5.37637 6.54511 5.39447L6.73405 5.95272C6.74735 5.992 6.70278 6.02546 6.66877 6.00174L6.16911 5.65323C6.15434 5.64293 6.13472 5.64293 6.11995 5.65323L5.62029 6.00174C5.58628 6.02546 5.54172 5.992 5.55501 5.95272L5.74395 5.39447C5.75008 5.37637 5.74351 5.35639 5.72784 5.34545L5.23502 5.00173C5.20054 4.97767 5.21756 4.92351 5.2596 4.92351H5.87253C5.89096 4.92351 5.90733 4.91177 5.91323 4.89432L6.10383 4.33119Z" fill="white"/>
<path d="M10.2288 4.33119C10.242 4.29227 10.2971 4.29227 10.3102 4.33119L10.5008 4.89432C10.5067 4.91177 10.5231 4.92351 10.5415 4.92351H11.1545C11.1965 4.92351 11.2135 4.97767 11.179 5.00173L10.6862 5.34545C10.6705 5.35639 10.664 5.37637 10.6701 5.39447L10.8591 5.95272C10.8723 5.992 10.8278 6.02546 10.7938 6.00174L10.2941 5.65323C10.2793 5.64293 10.2597 5.64293 10.2449 5.65323L9.74529 6.00174C9.71128 6.02546 9.66672 5.992 9.68001 5.95272L9.86895 5.39447C9.87508 5.37637 9.86851 5.35639 9.85284 5.34545L9.36002 5.00173C9.32554 4.97767 9.34256 4.92351 9.3846 4.92351H9.99753C10.016 4.92351 10.0323 4.91177 10.0382 4.89432L10.2288 4.33119Z" fill="white"/>
<path d="M14.3538 4.33119C14.367 4.29227 14.4221 4.29227 14.4352 4.33119L14.6258 4.89432C14.6317 4.91177 14.6481 4.92351 14.6665 4.92351H15.2795C15.3215 4.92351 15.3385 4.97767 15.304 5.00173L14.8112 5.34545C14.7955 5.35639 14.789 5.37637 14.7951 5.39447L14.9841 5.95272C14.9973 5.992 14.9528 6.02546 14.9188 6.00174L14.4191 5.65323C14.4043 5.64293 14.3847 5.64293 14.3699 5.65323L13.8703 6.00174C13.8363 6.02546 13.7917 5.992 13.805 5.95272L13.994 5.39447C14.0001 5.37637 13.9935 5.35639 13.9778 5.34545L13.485 5.00173C13.4505 4.97767 13.4676 4.92351 13.5096 4.92351H14.1225C14.141 4.92351 14.1573 4.91177 14.1632 4.89432L14.3538 4.33119Z" fill="white"/>
<path d="M12.2054 5.62025C12.2186 5.58133 12.2736 5.58133 12.2868 5.62025L12.4774 6.18338C12.4833 6.20083 12.4997 6.21258 12.5181 6.21258H13.131C13.1731 6.21258 13.1901 6.26673 13.1556 6.29079L12.6628 6.63452C12.6471 6.64545 12.6405 6.66543 12.6467 6.68353L12.8356 7.24178C12.8489 7.28106 12.8043 7.31452 12.7703 7.2908L12.2707 6.9423C12.2559 6.932 12.2363 6.932 12.2215 6.9423L11.7219 7.2908C11.6878 7.31452 11.6433 7.28106 11.6566 7.24178L11.8455 6.68353C11.8516 6.66543 11.8451 6.64545 11.8294 6.63452L11.3366 6.29079C11.3021 6.26673 11.3191 6.21258 11.3612 6.21258H11.9741C11.9925 6.21258 12.0089 6.20083 12.0148 6.18338L12.2054 5.62025Z" fill="white"/>
<path d="M16.3304 5.62025C16.3436 5.58133 16.3986 5.58133 16.4118 5.62025L16.6024 6.18338C16.6083 6.20083 16.6247 6.21258 16.6431 6.21258H17.256C17.2981 6.21258 17.3151 6.26673 17.2806 6.29079L16.7878 6.63452C16.7721 6.64545 16.7655 6.66543 16.7717 6.68353L16.9606 7.24178C16.9739 7.28106 16.9293 7.31452 16.8953 7.2908L16.3957 6.9423C16.3809 6.932 16.3613 6.932 16.3465 6.9423L15.8469 7.2908C15.8128 7.31452 15.7683 7.28106 15.7816 7.24178L15.9705 6.68353C15.9766 6.66543 15.9701 6.64545 15.9544 6.63452L15.4616 6.29079C15.4271 6.26673 15.4441 6.21258 15.4862 6.21258H16.0991C16.1175 6.21258 16.1339 6.20083 16.1398 6.18338L16.3304 5.62025Z" fill="white"/>
<path d="M8.16633 5.62025C8.1795 5.58133 8.23456 5.58133 8.24773 5.62025L8.43833 6.18338C8.44423 6.20083 8.46061 6.21258 8.47903 6.21258H9.09196C9.13401 6.21258 9.15103 6.26673 9.11654 6.29079L8.62373 6.63452C8.60805 6.64545 8.60148 6.66543 8.60761 6.68353L8.79655 7.24178C8.80985 7.28106 8.76528 7.31452 8.73127 7.2908L8.23161 6.9423C8.21684 6.932 8.19722 6.932 8.18245 6.9423L7.68279 7.2908C7.64878 7.31452 7.60422 7.28106 7.61751 7.24178L7.80645 6.68353C7.81258 6.66543 7.80601 6.64545 7.79034 6.63452L7.29752 6.29079C7.26304 6.26673 7.28006 6.21258 7.3221 6.21258H7.93503C7.95346 6.21258 7.96983 6.20083 7.97573 6.18338L8.16633 5.62025Z" fill="white"/>
<path d="M3.95539 5.62025C3.96857 5.58133 4.02362 5.58133 4.03679 5.62025L4.22739 6.18338C4.2333 6.20083 4.24967 6.21258 4.26809 6.21258H4.88102C4.92307 6.21258 4.94009 6.26673 4.9056 6.29079L4.41279 6.63452C4.39711 6.64545 4.39054 6.66543 4.39667 6.68353L4.58561 7.24178C4.59891 7.28106 4.55434 7.31452 4.52033 7.2908L4.02068 6.9423C4.00591 6.932 3.98628 6.932 3.97151 6.9423L3.47186 7.2908C3.43784 7.31452 3.39328 7.28106 3.40657 7.24178L3.59552 6.68353C3.60165 6.66543 3.59508 6.64545 3.5794 6.63452L3.08659 6.29079C3.0521 6.26673 3.06912 6.21258 3.11117 6.21258H3.7241C3.74252 6.21258 3.75889 6.20083 3.7648 6.18338L3.95539 5.62025Z" fill="white"/>
<path d="M18.4788 4.33119C18.492 4.29227 18.5471 4.29227 18.5602 4.33119L18.7508 4.89432C18.7567 4.91177 18.7731 4.92351 18.7915 4.92351H19.4045C19.4465 4.92351 19.4635 4.97767 19.429 5.00173L18.9362 5.34545C18.9205 5.35639 18.914 5.37637 18.9201 5.39447L19.1091 5.95272C19.1223 5.992 19.0778 6.02546 19.0438 6.00174L18.5441 5.65323C18.5293 5.64293 18.5097 5.64293 18.4949 5.65323L17.9953 6.00174C17.9613 6.02546 17.9167 5.992 17.93 5.95272L18.119 5.39447C18.1251 5.37637 18.1185 5.35639 18.1028 5.34545L17.61 5.00173C17.5755 4.97767 17.5926 4.92351 17.6346 4.92351H18.2475C18.266 4.92351 18.2823 4.91177 18.2882 4.89432L18.4788 4.33119Z" fill="white"/>
<path d="M1.97883 4.33119C1.992 4.29227 2.04706 4.29227 2.06023 4.33119L2.25083 4.89432C2.25673 4.91177 2.27311 4.92351 2.29153 4.92351H2.90446C2.94651 4.92351 2.96353 4.97767 2.92904 5.00173L2.43623 5.34545C2.42055 5.35639 2.41398 5.37637 2.42011 5.39447L2.60905 5.95272C2.62235 5.992 2.57778 6.02546 2.54377 6.00174L2.04411 5.65323C2.02934 5.64293 2.00972 5.64293 1.99495 5.65323L1.49529 6.00174C1.46128 6.02546 1.41672 5.992 1.43001 5.95272L1.61895 5.39447C1.62508 5.37637 1.61851 5.35639 1.60284 5.34545L1.11002 5.00173C1.07554 4.97767 1.09256 4.92351 1.1346 4.92351H1.74753C1.76596 4.92351 1.78233 4.91177 1.78823 4.89432L1.97883 4.33119Z" fill="white"/>
<path d="M6.10402 6.98972C6.11751 6.95151 6.17155 6.95151 6.18505 6.98972L6.37559 7.52923C6.38165 7.5464 6.39789 7.55789 6.4161 7.55789H7.02457C7.06705 7.55789 7.08377 7.61297 7.04845 7.63658L6.56252 7.96138C6.54619 7.97229 6.53934 7.99289 6.54588 8.01141L6.73291 8.54098C6.74667 8.57995 6.70287 8.61398 6.66852 8.59101L6.16841 8.25673C6.15396 8.24707 6.13511 8.24707 6.12065 8.25673L5.62055 8.59101C5.58619 8.61398 5.54239 8.57995 5.55615 8.54098L5.74318 8.01141C5.74972 7.99289 5.74287 7.97229 5.72654 7.96138L5.24062 7.63658C5.20529 7.61297 5.22201 7.55789 5.2645 7.55789H5.87296C5.89117 7.55789 5.90741 7.5464 5.91348 7.52923L6.10402 6.98972Z" fill="white"/>
<path d="M10.229 6.98972C10.2425 6.95151 10.2966 6.95151 10.31 6.98972L10.5006 7.52923C10.5067 7.5464 10.5229 7.55789 10.5411 7.55789H11.1496C11.1921 7.55789 11.2088 7.61297 11.1734 7.63658L10.6875 7.96138C10.6712 7.97229 10.6643 7.99289 10.6709 8.01141L10.8579 8.54098C10.8717 8.57995 10.8279 8.61398 10.7935 8.59101L10.2934 8.25673C10.279 8.24707 10.2601 8.24707 10.2457 8.25673L9.74555 8.59101C9.71119 8.61398 9.66739 8.57995 9.68115 8.54098L9.86818 8.01141C9.87472 7.99289 9.86787 7.97229 9.85154 7.96138L9.36562 7.63658C9.33029 7.61297 9.34701 7.55789 9.3895 7.55789H9.99796C10.0162 7.55789 10.0324 7.5464 10.0385 7.52923L10.229 6.98972Z" fill="white"/>
<path d="M14.354 6.98972C14.3675 6.95151 14.4216 6.95151 14.435 6.98972L14.6256 7.52923C14.6317 7.5464 14.6479 7.55789 14.6661 7.55789H15.2746C15.3171 7.55789 15.3338 7.61297 15.2984 7.63658L14.8125 7.96138C14.7962 7.97229 14.7893 7.99289 14.7959 8.01141L14.9829 8.54098C14.9967 8.57995 14.9529 8.61398 14.9185 8.59101L14.4184 8.25673C14.404 8.24707 14.3851 8.24707 14.3707 8.25673L13.8705 8.59101C13.8362 8.61398 13.7924 8.57995 13.8062 8.54098L13.9932 8.01141C13.9997 7.99289 13.9929 7.97229 13.9765 7.96138L13.4906 7.63658C13.4553 7.61297 13.472 7.55789 13.5145 7.55789H14.123C14.1412 7.55789 14.1574 7.5464 14.1635 7.52923L14.354 6.98972Z" fill="white"/>
<path d="M12.2056 8.27878C12.2191 8.24057 12.2731 8.24057 12.2866 8.27878L12.4771 8.81829C12.4832 8.83546 12.4995 8.84695 12.5177 8.84695H13.1261C13.1686 8.84695 13.1853 8.90203 13.15 8.92564L12.6641 9.25044C12.6478 9.26136 12.6409 9.28195 12.6474 9.30047L12.8345 9.83004C12.8482 9.86901 12.8044 9.90304 12.7701 9.88008L12.27 9.54579C12.2555 9.53613 12.2367 9.53613 12.2222 9.54579L11.7221 9.88008C11.6878 9.90304 11.644 9.86901 11.6577 9.83004L11.8447 9.30047C11.8513 9.28195 11.8444 9.26136 11.8281 9.25044L11.3422 8.92564C11.3069 8.90203 11.3236 8.84695 11.3661 8.84695H11.9745C11.9927 8.84695 12.009 8.83546 12.015 8.81829L12.2056 8.27878Z" fill="white"/>
<path d="M16.3306 8.27878C16.3441 8.24057 16.3981 8.24057 16.4116 8.27878L16.6021 8.81829C16.6082 8.83546 16.6245 8.84695 16.6427 8.84695H17.2511C17.2936 8.84695 17.3103 8.90203 17.275 8.92564L16.7891 9.25044C16.7728 9.26136 16.7659 9.28195 16.7724 9.30047L16.9595 9.83004C16.9732 9.86901 16.9294 9.90304 16.8951 9.88008L16.395 9.54579C16.3805 9.53613 16.3617 9.53613 16.3472 9.54579L15.8471 9.88008C15.8128 9.90304 15.769 9.86901 15.7827 9.83004L15.9697 9.30047C15.9763 9.28195 15.9694 9.26136 15.9531 9.25044L15.4672 8.92564C15.4319 8.90203 15.4486 8.84695 15.4911 8.84695H16.0995C16.1177 8.84695 16.134 8.83546 16.14 8.81829L16.3306 8.27878Z" fill="white"/>
<path d="M8.16652 8.27878C8.18001 8.24057 8.23405 8.24057 8.24755 8.27878L8.43809 8.81829C8.44415 8.83546 8.46039 8.84695 8.4786 8.84695H9.08707C9.12955 8.84695 9.14627 8.90203 9.11095 8.92564L8.62502 9.25044C8.60869 9.26136 8.60184 9.28195 8.60838 9.30047L8.79541 9.83004C8.80917 9.86901 8.76537 9.90304 8.73102 9.88008L8.23091 9.54579C8.21646 9.53613 8.19761 9.53613 8.18315 9.54579L7.68305 9.88008C7.64869 9.90304 7.60489 9.86901 7.61865 9.83004L7.80568 9.30047C7.81222 9.28195 7.80537 9.26136 7.78904 9.25044L7.30312 8.92564C7.26779 8.90203 7.28451 8.84695 7.327 8.84695H7.93546C7.95367 8.84695 7.96991 8.83546 7.97598 8.81829L8.16652 8.27878Z" fill="white"/>
<path d="M3.95558 8.27878C3.96907 8.24057 4.02311 8.24057 4.03661 8.27878L4.22715 8.81829C4.23321 8.83546 4.24945 8.84695 4.26767 8.84695H4.87613C4.91862 8.84695 4.93533 8.90203 4.90001 8.92564L4.41408 9.25044C4.39775 9.26136 4.3909 9.28195 4.39744 9.30047L4.58447 9.83004C4.59824 9.86901 4.55444 9.90304 4.52008 9.88008L4.01997 9.54579C4.00552 9.53613 3.98667 9.53613 3.97222 9.54579L3.47211 9.88008C3.43775 9.90304 3.39395 9.86901 3.40771 9.83004L3.59474 9.30047C3.60128 9.28195 3.59443 9.26136 3.57811 9.25044L3.09218 8.92564C3.05686 8.90203 3.07357 8.84695 3.11606 8.84695H3.72452C3.74274 8.84695 3.75897 8.83546 3.76504 8.81829L3.95558 8.27878Z" fill="white"/>
<path d="M18.479 6.98972C18.4925 6.95151 18.5466 6.95151 18.56 6.98972L18.7506 7.52923C18.7567 7.5464 18.7729 7.55789 18.7911 7.55789H19.3996C19.4421 7.55789 19.4588 7.61297 19.4234 7.63658L18.9375 7.96138C18.9212 7.97229 18.9143 7.99289 18.9209 8.01141L19.1079 8.54098C19.1217 8.57995 19.0779 8.61398 19.0435 8.59101L18.5434 8.25673C18.529 8.24707 18.5101 8.24707 18.4957 8.25673L17.9955 8.59101C17.9612 8.61398 17.9174 8.57995 17.9312 8.54098L18.1182 8.01141C18.1247 7.99289 18.1179 7.97229 18.1015 7.96138L17.6156 7.63658C17.5803 7.61297 17.597 7.55789 17.6395 7.55789H18.248C18.2662 7.55789 18.2824 7.5464 18.2885 7.52923L18.479 6.98972Z" fill="white"/>
<path d="M1.97902 6.98972C1.99251 6.95151 2.04655 6.95151 2.06005 6.98972L2.25059 7.52923C2.25665 7.5464 2.27289 7.55789 2.2911 7.55789H2.89957C2.94205 7.55789 2.95877 7.61297 2.92345 7.63658L2.43752 7.96138C2.42119 7.97229 2.41434 7.99289 2.42088 8.01141L2.60791 8.54098C2.62167 8.57995 2.57787 8.61398 2.54352 8.59101L2.04341 8.25673C2.02896 8.24707 2.01011 8.24707 1.99565 8.25673L1.49555 8.59101C1.46119 8.61398 1.41739 8.57995 1.43115 8.54098L1.61818 8.01141C1.62472 7.99289 1.61787 7.97229 1.60154 7.96138L1.11562 7.63658C1.08029 7.61297 1.09701 7.55789 1.1395 7.55789H1.74796C1.76617 7.55789 1.78241 7.5464 1.78848 7.52923L1.97902 6.98972Z" fill="white"/>
<path d="M6.10383 9.57338C6.117 9.53445 6.17206 9.53445 6.18523 9.57338L6.37583 10.1365C6.38173 10.154 6.39811 10.1657 6.41653 10.1657H7.02946C7.07151 10.1657 7.08853 10.2199 7.05404 10.2439L6.56123 10.5876C6.54555 10.5986 6.53898 10.6186 6.54511 10.6367L6.73405 11.1949C6.74735 11.2342 6.70278 11.2676 6.66877 11.2439L6.16911 10.8954C6.15434 10.8851 6.13472 10.8851 6.11995 10.8954L5.62029 11.2439C5.58628 11.2676 5.54172 11.2342 5.55501 11.1949L5.74395 10.6367C5.75008 10.6186 5.74351 10.5986 5.72784 10.5876L5.23502 10.2439C5.20054 10.2199 5.21756 10.1657 5.2596 10.1657H5.87253C5.89096 10.1657 5.90733 10.154 5.91323 10.1365L6.10383 9.57338Z" fill="white"/>
<path d="M10.2288 9.57338C10.242 9.53445 10.2971 9.53445 10.3102 9.57338L10.5008 10.1365C10.5067 10.154 10.5231 10.1657 10.5415 10.1657H11.1545C11.1965 10.1657 11.2135 10.2199 11.179 10.2439L10.6862 10.5876C10.6705 10.5986 10.664 10.6186 10.6701 10.6367L10.8591 11.1949C10.8723 11.2342 10.8278 11.2676 10.7938 11.2439L10.2941 10.8954C10.2793 10.8851 10.2597 10.8851 10.2449 10.8954L9.74529 11.2439C9.71128 11.2676 9.66672 11.2342 9.68001 11.1949L9.86895 10.6367C9.87508 10.6186 9.86851 10.5986 9.85284 10.5876L9.36002 10.2439C9.32554 10.2199 9.34256 10.1657 9.3846 10.1657H9.99753C10.016 10.1657 10.0323 10.154 10.0382 10.1365L10.2288 9.57338Z" fill="white"/>
<path d="M14.3538 9.57338C14.367 9.53445 14.4221 9.53445 14.4352 9.57338L14.6258 10.1365C14.6317 10.154 14.6481 10.1657 14.6665 10.1657H15.2795C15.3215 10.1657 15.3385 10.2199 15.304 10.2439L14.8112 10.5876C14.7955 10.5986 14.789 10.6186 14.7951 10.6367L14.9841 11.1949C14.9973 11.2342 14.9528 11.2676 14.9188 11.2439L14.4191 10.8954C14.4043 10.8851 14.3847 10.8851 14.3699 10.8954L13.8703 11.2439C13.8363 11.2676 13.7917 11.2342 13.805 11.1949L13.994 10.6367C14.0001 10.6186 13.9935 10.5986 13.9778 10.5876L13.485 10.2439C13.4505 10.2199 13.4676 10.1657 13.5096 10.1657H14.1225C14.141 10.1657 14.1573 10.154 14.1632 10.1365L14.3538 9.57338Z" fill="white"/>
<path d="M12.2054 10.8624C12.2186 10.8235 12.2736 10.8235 12.2868 10.8624L12.4774 11.4256C12.4833 11.443 12.4997 11.4548 12.5181 11.4548H13.131C13.1731 11.4548 13.1901 11.5089 13.1556 11.533L12.6628 11.8767C12.6471 11.8876 12.6405 11.9076 12.6467 11.9257L12.8356 12.484C12.8489 12.5232 12.8043 12.5567 12.7703 12.533L12.2707 12.1845C12.2559 12.1742 12.2363 12.1742 12.2215 12.1845L11.7219 12.533C11.6878 12.5567 11.6433 12.5232 11.6566 12.484L11.8455 11.9257C11.8516 11.9076 11.8451 11.8876 11.8294 11.8767L11.3366 11.533C11.3021 11.5089 11.3191 11.4548 11.3612 11.4548H11.9741C11.9925 11.4548 12.0089 11.443 12.0148 11.4256L12.2054 10.8624Z" fill="white"/>
<path d="M16.3304 10.8624C16.3436 10.8235 16.3986 10.8235 16.4118 10.8624L16.6024 11.4256C16.6083 11.443 16.6247 11.4548 16.6431 11.4548H17.256C17.2981 11.4548 17.3151 11.5089 17.2806 11.533L16.7878 11.8767C16.7721 11.8876 16.7655 11.9076 16.7717 11.9257L16.9606 12.484C16.9739 12.5232 16.9293 12.5567 16.8953 12.533L16.3957 12.1845C16.3809 12.1742 16.3613 12.1742 16.3465 12.1845L15.8469 12.533C15.8128 12.5567 15.7683 12.5232 15.7816 12.484L15.9705 11.9257C15.9766 11.9076 15.9701 11.8876 15.9544 11.8767L15.4616 11.533C15.4271 11.5089 15.4441 11.4548 15.4862 11.4548H16.0991C16.1175 11.4548 16.1339 11.443 16.1398 11.4256L16.3304 10.8624Z" fill="white"/>
<path d="M8.16633 10.8624C8.1795 10.8235 8.23456 10.8235 8.24773 10.8624L8.43833 11.4256C8.44423 11.443 8.46061 11.4548 8.47903 11.4548H9.09196C9.13401 11.4548 9.15103 11.5089 9.11654 11.533L8.62373 11.8767C8.60805 11.8876 8.60148 11.9076 8.60761 11.9257L8.79655 12.484C8.80985 12.5232 8.76528 12.5567 8.73127 12.533L8.23161 12.1845C8.21684 12.1742 8.19722 12.1742 8.18245 12.1845L7.68279 12.533C7.64878 12.5567 7.60422 12.5232 7.61751 12.484L7.80645 11.9257C7.81258 11.9076 7.80601 11.8876 7.79034 11.8767L7.29752 11.533C7.26304 11.5089 7.28006 11.4548 7.3221 11.4548H7.93503C7.95346 11.4548 7.96983 11.443 7.97573 11.4256L8.16633 10.8624Z" fill="white"/>
<path d="M3.95539 10.8624C3.96857 10.8235 4.02362 10.8235 4.03679 10.8624L4.22739 11.4256C4.2333 11.443 4.24967 11.4548 4.26809 11.4548H4.88102C4.92307 11.4548 4.94009 11.5089 4.9056 11.533L4.41279 11.8767C4.39711 11.8876 4.39054 11.9076 4.39667 11.9257L4.58561 12.484C4.59891 12.5232 4.55434 12.5567 4.52033 12.533L4.02068 12.1845C4.00591 12.1742 3.98628 12.1742 3.97151 12.1845L3.47186 12.533C3.43784 12.5567 3.39328 12.5232 3.40657 12.484L3.59552 11.9257C3.60165 11.9076 3.59508 11.8876 3.5794 11.8767L3.08659 11.533C3.0521 11.5089 3.06912 11.4548 3.11117 11.4548H3.7241C3.74252 11.4548 3.75889 11.443 3.7648 11.4256L3.95539 10.8624Z" fill="white"/>
<path d="M18.4788 9.57338C18.492 9.53445 18.5471 9.53445 18.5602 9.57338L18.7508 10.1365C18.7567 10.154 18.7731 10.1657 18.7915 10.1657H19.4045C19.4465 10.1657 19.4635 10.2199 19.429 10.2439L18.9362 10.5876C18.9205 10.5986 18.914 10.6186 18.9201 10.6367L19.1091 11.1949C19.1223 11.2342 19.0778 11.2676 19.0438 11.2439L18.5441 10.8954C18.5293 10.8851 18.5097 10.8851 18.4949 10.8954L17.9953 11.2439C17.9613 11.2676 17.9167 11.2342 17.93 11.1949L18.119 10.6367C18.1251 10.6186 18.1185 10.5986 18.1028 10.5876L17.61 10.2439C17.5755 10.2199 17.5926 10.1657 17.6346 10.1657H18.2475C18.266 10.1657 18.2823 10.154 18.2882 10.1365L18.4788 9.57338Z" fill="white"/>
<path d="M1.97883 9.57338C1.992 9.53445 2.04706 9.53445 2.06023 9.57338L2.25083 10.1365C2.25673 10.154 2.27311 10.1657 2.29153 10.1657H2.90446C2.94651 10.1657 2.96353 10.2199 2.92904 10.2439L2.43623 10.5876C2.42055 10.5986 2.41398 10.6186 2.42011 10.6367L2.60905 11.1949C2.62235 11.2342 2.57778 11.2676 2.54377 11.2439L2.04411 10.8954C2.02934 10.8851 2.00972 10.8851 1.99495 10.8954L1.49529 11.2439C1.46128 11.2676 1.41672 11.2342 1.43001 11.1949L1.61895 10.6367C1.62508 10.6186 1.61851 10.5986 1.60284 10.5876L1.11002 10.2439C1.07554 10.2199 1.09256 10.1657 1.1346 10.1657H1.74753C1.76596 10.1657 1.78233 10.154 1.78823 10.1365L1.97883 9.57338Z" fill="white"/>
<path d="M6.10383 12.2374C6.117 12.1985 6.17206 12.1985 6.18523 12.2374L6.37583 12.8006C6.38173 12.818 6.39811 12.8298 6.41653 12.8298H7.02946C7.07151 12.8298 7.08853 12.8839 7.05404 12.908L6.56123 13.2517C6.54555 13.2626 6.53898 13.2826 6.54511 13.3007L6.73405 13.859C6.74735 13.8982 6.70278 13.9317 6.66877 13.908L6.16911 13.5595C6.15434 13.5492 6.13472 13.5492 6.11995 13.5595L5.62029 13.908C5.58628 13.9317 5.54172 13.8982 5.55501 13.859L5.74395 13.3007C5.75008 13.2826 5.74351 13.2626 5.72784 13.2517L5.23502 12.908C5.20054 12.8839 5.21756 12.8298 5.2596 12.8298H5.87253C5.89096 12.8298 5.90733 12.818 5.91323 12.8006L6.10383 12.2374Z" fill="white"/>
<path d="M10.2288 12.2374C10.242 12.1985 10.2971 12.1985 10.3102 12.2374L10.5008 12.8006C10.5067 12.818 10.5231 12.8298 10.5415 12.8298H11.1545C11.1965 12.8298 11.2135 12.8839 11.179 12.908L10.6862 13.2517C10.6705 13.2626 10.664 13.2826 10.6701 13.3007L10.8591 13.859C10.8723 13.8982 10.8278 13.9317 10.7938 13.908L10.2941 13.5595C10.2793 13.5492 10.2597 13.5492 10.2449 13.5595L9.74529 13.908C9.71128 13.9317 9.66672 13.8982 9.68001 13.859L9.86895 13.3007C9.87508 13.2826 9.86851 13.2626 9.85284 13.2517L9.36002 12.908C9.32554 12.8839 9.34256 12.8298 9.3846 12.8298H9.99753C10.016 12.8298 10.0323 12.818 10.0382 12.8006L10.2288 12.2374Z" fill="white"/>
<path d="M14.3538 12.2374C14.367 12.1985 14.4221 12.1985 14.4352 12.2374L14.6258 12.8006C14.6317 12.818 14.6481 12.8298 14.6665 12.8298H15.2795C15.3215 12.8298 15.3385 12.8839 15.304 12.908L14.8112 13.2517C14.7955 13.2626 14.789 13.2826 14.7951 13.3007L14.9841 13.859C14.9973 13.8982 14.9528 13.9317 14.9188 13.908L14.4191 13.5595C14.4043 13.5492 14.3847 13.5492 14.3699 13.5595L13.8703 13.908C13.8363 13.9317 13.7917 13.8982 13.805 13.859L13.994 13.3007C14.0001 13.2826 13.9935 13.2626 13.9778 13.2517L13.485 12.908C13.4505 12.8839 13.4676 12.8298 13.5096 12.8298H14.1225C14.141 12.8298 14.1573 12.818 14.1632 12.8006L14.3538 12.2374Z" fill="white"/>
<path d="M18.4788 12.2374C18.492 12.1985 18.5471 12.1985 18.5602 12.2374L18.7508 12.8006C18.7567 12.818 18.7731 12.8298 18.7915 12.8298H19.4045C19.4465 12.8298 19.4635 12.8839 19.429 12.908L18.9362 13.2517C18.9205 13.2626 18.914 13.2826 18.9201 13.3007L19.1091 13.859C19.1223 13.8982 19.0778 13.9317 19.0438 13.908L18.5441 13.5595C18.5293 13.5492 18.5097 13.5492 18.4949 13.5595L17.9953 13.908C17.9613 13.9317 17.9167 13.8982 17.93 13.859L18.119 13.3007C18.1251 13.2826 18.1185 13.2626 18.1028 13.2517L17.61 12.908C17.5755 12.8839 17.5926 12.8298 17.6346 12.8298H18.2475C18.266 12.8298 18.2823 12.818 18.2882 12.8006L18.4788 12.2374Z" fill="white"/>
<path d="M1.97883 12.2374C1.992 12.1985 2.04706 12.1985 2.06023 12.2374L2.25083 12.8006C2.25673 12.818 2.27311 12.8298 2.29153 12.8298H2.90446C2.94651 12.8298 2.96353 12.8839 2.92904 12.908L2.43623 13.2517C2.42055 13.2626 2.41398 13.2826 2.42011 13.3007L2.60905 13.859C2.62235 13.8982 2.57778 13.9317 2.54377 13.908L2.04411 13.5595C2.02934 13.5492 2.00972 13.5492 1.99495 13.5595L1.49529 13.908C1.46128 13.9317 1.41672 13.8982 1.43001 13.859L1.61895 13.3007C1.62508 13.2826 1.61851 13.2626 1.60284 13.2517L1.11002 12.908C1.07554 12.8839 1.09256 12.8298 1.1346 12.8298H1.74753C1.76596 12.8298 1.78233 12.818 1.78823 12.8006L1.97883 12.2374Z" fill="white"/>
</svg>
