<svg width="84" height="56" viewBox="0 0 84 56" fill="none" xmlns="http://www.w3.org/2000/svg">
<rect x="0.954545" y="0.954545" width="82.0909" height="53.4545" rx="4.77273" stroke="white" stroke-width="1.90909"/>
<path d="M5.72727 0.954545H38.1818C38.709 0.954545 39.1364 1.38191 39.1364 1.90909V28.6364C39.1364 29.1635 38.709 29.5909 38.1818 29.5909H0.954545V5.72727C0.954545 3.09137 3.09137 0.954545 5.72727 0.954545Z" stroke="white" stroke-width="1.90909"/>
<line x1="40.0908" y1="7.63632" x2="82.0908" y2="7.63632" stroke="white" stroke-width="3.81818"/>
<line x1="40.0908" y1="15.2725" x2="82.0908" y2="15.2725" stroke="white" stroke-width="3.81818"/>
<line x1="40.0908" y1="22.9093" x2="82.0908" y2="22.9093" stroke="white" stroke-width="3.81818"/>
<line x1="1.90918" y1="30.5455" x2="82.091" y2="30.5455" stroke="white" stroke-width="3.81818"/>
<line x1="1.90918" y1="38.1817" x2="82.091" y2="38.1817" stroke="white" stroke-width="3.81818"/>
<line x1="1.90918" y1="45.818" x2="82.091" y2="45.818" stroke="white" stroke-width="3.81818"/>
<line x1="1.90918" y1="52.5" x2="82.091" y2="52.5" stroke="white" stroke-width="1.90909"/>
<path d="M13.3489 4.97237C13.3708 4.90766 13.4624 4.90766 13.4843 4.97237L13.8011 5.90849C13.8109 5.9375 13.8381 5.95702 13.8688 5.95702H14.8877C14.9576 5.95702 14.9859 6.04705 14.9285 6.08704L14.1093 6.65844C14.0832 6.67662 14.0723 6.70983 14.0825 6.73992L14.3966 7.66793C14.4187 7.73323 14.3446 7.78886 14.2881 7.74942L13.4575 7.17008C13.4329 7.15296 13.4003 7.15296 13.3757 7.17008L12.5451 7.74942C12.4886 7.78886 12.4145 7.73323 12.4366 7.66793L12.7507 6.73992C12.7609 6.70983 12.75 6.67662 12.7239 6.65844L11.9047 6.08704C11.8473 6.04705 11.8756 5.95702 11.9455 5.95702H12.9644C12.9951 5.95702 13.0223 5.9375 13.0321 5.90849L13.3489 4.97237Z" fill="white"/>
<path d="M20.2054 4.97237C20.2273 4.90766 20.3188 4.90766 20.3407 4.97237L20.6575 5.90849C20.6674 5.9375 20.6946 5.95702 20.7252 5.95702H21.7441C21.814 5.95702 21.8423 6.04705 21.785 6.08704L20.9657 6.65844C20.9397 6.67662 20.9288 6.70983 20.939 6.73992L21.253 7.66793C21.2751 7.73323 21.2011 7.78886 21.1445 7.74942L20.3139 7.17008C20.2894 7.15296 20.2567 7.15296 20.2322 7.17008L19.4016 7.74942C19.345 7.78886 19.271 7.73323 19.2931 7.66793L19.6071 6.73992C19.6173 6.70983 19.6064 6.67662 19.5803 6.65844L18.7611 6.08704C18.7038 6.04705 18.7321 5.95702 18.802 5.95702H19.8209C19.8515 5.95702 19.8787 5.9375 19.8885 5.90849L20.2054 4.97237Z" fill="white"/>
<path d="M27.0628 4.97237C27.0847 4.90766 27.1762 4.90766 27.1981 4.97237L27.515 5.90849C27.5248 5.9375 27.552 5.95702 27.5826 5.95702H28.6015C28.6714 5.95702 28.6997 6.04705 28.6424 6.08704L27.8232 6.65844C27.7971 6.67662 27.7862 6.70983 27.7964 6.73992L28.1105 7.66793C28.1326 7.73323 28.0585 7.78886 28.0019 7.74942L27.1713 7.17008C27.1468 7.15296 27.1142 7.15296 27.0896 7.17008L26.259 7.74942C26.2025 7.78886 26.1284 7.73323 26.1505 7.66793L26.4646 6.73992C26.4748 6.70983 26.4638 6.67662 26.4378 6.65844L25.6185 6.08704C25.5612 6.04705 25.5895 5.95702 25.6594 5.95702H26.6783C26.7089 5.95702 26.7362 5.9375 26.746 5.90849L27.0628 4.97237Z" fill="white"/>
<path d="M23.4905 7.11543C23.5124 7.05073 23.604 7.05073 23.6259 7.11543L23.9427 8.05156C23.9525 8.08057 23.9797 8.10009 24.0104 8.10009H25.0293C25.0992 8.10009 25.1275 8.19012 25.0701 8.2301L24.2509 8.8015C24.2248 8.81968 24.2139 8.85289 24.2241 8.88299L24.5382 9.811C24.5603 9.8763 24.4862 9.93192 24.4297 9.89248L23.5991 9.31315C23.5745 9.29603 23.5419 9.29603 23.5173 9.31315L22.6867 9.89248C22.6302 9.93192 22.5561 9.8763 22.5782 9.811L22.8923 8.88299C22.9025 8.85289 22.8916 8.81968 22.8655 8.8015L22.0463 8.2301C21.9889 8.19012 22.0172 8.10009 22.0871 8.10009H23.106C23.1367 8.10009 23.1639 8.08057 23.1737 8.05156L23.4905 7.11543Z" fill="white"/>
<path d="M30.3499 7.11543C30.3718 7.05073 30.4633 7.05073 30.4852 7.11543L30.8021 8.05156C30.8119 8.08057 30.8391 8.10009 30.8697 8.10009H31.8886C31.9585 8.10009 31.9868 8.19012 31.9295 8.2301L31.1103 8.8015C31.0842 8.81968 31.0733 8.85289 31.0835 8.88299L31.3976 9.811C31.4197 9.8763 31.3456 9.93192 31.2891 9.89248L30.4584 9.31315C30.4339 9.29603 30.4013 9.29603 30.3767 9.31315L29.5461 9.89248C29.4896 9.93192 29.4155 9.8763 29.4376 9.811L29.7517 8.88299C29.7619 8.85289 29.7509 8.81968 29.7249 8.8015L28.9056 8.2301C28.8483 8.19012 28.8766 8.10009 28.9465 8.10009H29.9654C29.996 8.10009 30.0233 8.08057 30.0331 8.05156L30.3499 7.11543Z" fill="white"/>
<path d="M16.7757 7.11543C16.7976 7.05073 16.8891 7.05073 16.911 7.11543L17.2279 8.05156C17.2377 8.08057 17.2649 8.10009 17.2955 8.10009H18.3144C18.3843 8.10009 18.4126 8.19012 18.3553 8.2301L17.5361 8.8015C17.51 8.81968 17.4991 8.85289 17.5093 8.88299L17.8234 9.811C17.8455 9.8763 17.7714 9.93192 17.7148 9.89248L16.8842 9.31315C16.8597 9.29603 16.827 9.29603 16.8025 9.31315L15.9719 9.89248C15.9153 9.93192 15.8413 9.8763 15.8634 9.811L16.1775 8.88299C16.1876 8.85289 16.1767 8.81968 16.1507 8.8015L15.3314 8.2301C15.2741 8.19012 15.3024 8.10009 15.3723 8.10009H16.3912C16.4218 8.10009 16.449 8.08057 16.4589 8.05156L16.7757 7.11543Z" fill="white"/>
<path d="M9.77668 7.11543C9.79858 7.05073 9.89009 7.05073 9.91199 7.11543L10.2288 8.05156C10.2387 8.08057 10.2659 8.10009 10.2965 8.10009H11.3154C11.3853 8.10009 11.4136 8.19012 11.3563 8.2301L10.537 8.8015C10.511 8.81968 10.5001 8.85289 10.5102 8.88299L10.8243 9.811C10.8464 9.8763 10.7724 9.93192 10.7158 9.89248L9.8852 9.31315C9.86065 9.29603 9.82802 9.29603 9.80347 9.31315L8.97286 9.89248C8.91632 9.93192 8.84224 9.8763 8.86434 9.811L9.17843 8.88299C9.18862 8.85289 9.1777 8.81968 9.15164 8.8015L8.3324 8.2301C8.27507 8.19012 8.30337 8.10009 8.37327 8.10009H9.39218C9.4228 8.10009 9.45002 8.08057 9.45984 8.05156L9.77668 7.11543Z" fill="white"/>
<path d="M33.9212 4.97237C33.9431 4.90766 34.0346 4.90766 34.0565 4.97237L34.3734 5.90849C34.3832 5.9375 34.4104 5.95702 34.441 5.95702H35.4599C35.5298 5.95702 35.5581 6.04705 35.5008 6.08704L34.6816 6.65844C34.6555 6.67662 34.6446 6.70983 34.6548 6.73992L34.9689 7.66793C34.991 7.73323 34.9169 7.78886 34.8603 7.74942L34.0297 7.17008C34.0052 7.15296 33.9726 7.15296 33.948 7.17008L33.1174 7.74942C33.0609 7.78886 32.9868 7.73323 33.0089 7.66793L33.323 6.73992C33.3332 6.70983 33.3222 6.67662 33.2962 6.65844L32.4769 6.08704C32.4196 6.04705 32.4479 5.95702 32.5178 5.95702H33.5367C33.5673 5.95702 33.5946 5.9375 33.6044 5.90849L33.9212 4.97237Z" fill="white"/>
<path d="M6.49152 4.97237C6.51342 4.90766 6.60494 4.90766 6.62684 4.97237L6.94368 5.90849C6.9535 5.9375 6.98071 5.95702 7.01134 5.95702H8.03025C8.10015 5.95702 8.12844 6.04705 8.07111 6.08704L7.25188 6.65844C7.22582 6.67662 7.2149 6.70983 7.22508 6.73992L7.53917 7.66793C7.56128 7.73323 7.48719 7.78886 7.43065 7.74942L6.60004 7.17008C6.57549 7.15296 6.54287 7.15296 6.51832 7.17008L5.68771 7.74942C5.63116 7.78886 5.55708 7.73323 5.57918 7.66793L5.89328 6.73992C5.90346 6.70983 5.89254 6.67662 5.86648 6.65844L5.04725 6.08704C4.98991 6.04705 5.01821 5.95702 5.08811 5.95702H6.10702C6.13765 5.95702 6.16486 5.9375 6.17468 5.90849L6.49152 4.97237Z" fill="white"/>
<path d="M13.3489 9.40108C13.3708 9.33637 13.4624 9.33637 13.4843 9.40108L13.8011 10.3372C13.8109 10.3662 13.8381 10.3857 13.8688 10.3857H14.8877C14.9576 10.3857 14.9859 10.4758 14.9285 10.5157L14.1093 11.0871C14.0832 11.1053 14.0723 11.1385 14.0825 11.1686L14.3966 12.0966C14.4187 12.1619 14.3446 12.2176 14.2881 12.1781L13.4575 11.5988C13.4329 11.5817 13.4003 11.5817 13.3757 11.5988L12.5451 12.1781C12.4886 12.2176 12.4145 12.1619 12.4366 12.0966L12.7507 11.1686C12.7609 11.1385 12.75 11.1053 12.7239 11.0871L11.9047 10.5157C11.8473 10.4758 11.8756 10.3857 11.9455 10.3857H12.9644C12.9951 10.3857 13.0223 10.3662 13.0321 10.3372L13.3489 9.40108Z" fill="white"/>
<path d="M20.2054 9.40108C20.2273 9.33637 20.3188 9.33637 20.3407 9.40108L20.6575 10.3372C20.6674 10.3662 20.6946 10.3857 20.7252 10.3857H21.7441C21.814 10.3857 21.8423 10.4758 21.785 10.5157L20.9657 11.0871C20.9397 11.1053 20.9288 11.1385 20.939 11.1686L21.253 12.0966C21.2751 12.1619 21.2011 12.2176 21.1445 12.1781L20.3139 11.5988C20.2894 11.5817 20.2567 11.5817 20.2322 11.5988L19.4016 12.1781C19.345 12.2176 19.271 12.1619 19.2931 12.0966L19.6071 11.1686C19.6173 11.1385 19.6064 11.1053 19.5803 11.0871L18.7611 10.5157C18.7038 10.4758 18.7321 10.3857 18.802 10.3857H19.8209C19.8515 10.3857 19.8787 10.3662 19.8885 10.3372L20.2054 9.40108Z" fill="white"/>
<path d="M27.0628 9.40108C27.0847 9.33637 27.1762 9.33637 27.1981 9.40108L27.515 10.3372C27.5248 10.3662 27.552 10.3857 27.5826 10.3857H28.6015C28.6714 10.3857 28.6997 10.4758 28.6424 10.5157L27.8232 11.0871C27.7971 11.1053 27.7862 11.1385 27.7964 11.1686L28.1105 12.0966C28.1326 12.1619 28.0585 12.2176 28.0019 12.1781L27.1713 11.5988C27.1468 11.5817 27.1142 11.5817 27.0896 11.5988L26.259 12.1781C26.2025 12.2176 26.1284 12.1619 26.1505 12.0966L26.4646 11.1686C26.4748 11.1385 26.4638 11.1053 26.4378 11.0871L25.6185 10.5157C25.5612 10.4758 25.5895 10.3857 25.6594 10.3857H26.6783C26.7089 10.3857 26.7362 10.3662 26.746 10.3372L27.0628 9.40108Z" fill="white"/>
<path d="M23.4905 11.5432C23.5124 11.4785 23.604 11.4785 23.6259 11.5432L23.9427 12.4793C23.9525 12.5083 23.9797 12.5278 24.0104 12.5278H25.0293C25.0992 12.5278 25.1275 12.6179 25.0701 12.6578L24.2509 13.2292C24.2248 13.2474 24.2139 13.2806 24.2241 13.3107L24.5382 14.2387C24.5603 14.304 24.4862 14.3597 24.4297 14.3202L23.5991 13.7409C23.5745 13.7238 23.5419 13.7238 23.5173 13.7409L22.6867 14.3202C22.6302 14.3597 22.5561 14.304 22.5782 14.2387L22.8923 13.3107C22.9025 13.2806 22.8916 13.2474 22.8655 13.2292L22.0463 12.6578C21.9889 12.6179 22.0172 12.5278 22.0871 12.5278H23.106C23.1367 12.5278 23.1639 12.5083 23.1737 12.4793L23.4905 11.5432Z" fill="white"/>
<path d="M30.3499 11.5432C30.3718 11.4785 30.4633 11.4785 30.4852 11.5432L30.8021 12.4793C30.8119 12.5083 30.8391 12.5278 30.8697 12.5278H31.8886C31.9585 12.5278 31.9868 12.6179 31.9295 12.6578L31.1103 13.2292C31.0842 13.2474 31.0733 13.2806 31.0835 13.3107L31.3976 14.2387C31.4197 14.304 31.3456 14.3597 31.2891 14.3202L30.4584 13.7409C30.4339 13.7238 30.4013 13.7238 30.3767 13.7409L29.5461 14.3202C29.4896 14.3597 29.4155 14.304 29.4376 14.2387L29.7517 13.3107C29.7619 13.2806 29.7509 13.2474 29.7249 13.2292L28.9056 12.6578C28.8483 12.6179 28.8766 12.5278 28.9465 12.5278H29.9654C29.996 12.5278 30.0233 12.5083 30.0331 12.4793L30.3499 11.5432Z" fill="white"/>
<path d="M16.7757 11.5432C16.7976 11.4785 16.8891 11.4785 16.911 11.5432L17.2279 12.4793C17.2377 12.5083 17.2649 12.5278 17.2955 12.5278H18.3144C18.3843 12.5278 18.4126 12.6179 18.3553 12.6578L17.5361 13.2292C17.51 13.2474 17.4991 13.2806 17.5093 13.3107L17.8234 14.2387C17.8455 14.304 17.7714 14.3597 17.7148 14.3202L16.8842 13.7409C16.8597 13.7238 16.827 13.7238 16.8025 13.7409L15.9719 14.3202C15.9153 14.3597 15.8413 14.304 15.8634 14.2387L16.1775 13.3107C16.1876 13.2806 16.1767 13.2474 16.1507 13.2292L15.3314 12.6578C15.2741 12.6179 15.3024 12.5278 15.3723 12.5278H16.3912C16.4218 12.5278 16.449 12.5083 16.4589 12.4793L16.7757 11.5432Z" fill="white"/>
<path d="M9.77668 11.5432C9.79858 11.4785 9.89009 11.4785 9.91199 11.5432L10.2288 12.4793C10.2387 12.5083 10.2659 12.5278 10.2965 12.5278H11.3154C11.3853 12.5278 11.4136 12.6179 11.3563 12.6578L10.537 13.2292C10.511 13.2474 10.5001 13.2806 10.5102 13.3107L10.8243 14.2387C10.8464 14.304 10.7724 14.3597 10.7158 14.3202L9.8852 13.7409C9.86065 13.7238 9.82802 13.7238 9.80347 13.7409L8.97286 14.3202C8.91632 14.3597 8.84224 14.304 8.86434 14.2387L9.17843 13.3107C9.18862 13.2806 9.1777 13.2474 9.15164 13.2292L8.3324 12.6578C8.27507 12.6179 8.30337 12.5278 8.37327 12.5278H9.39218C9.4228 12.5278 9.45002 12.5083 9.45984 12.4793L9.77668 11.5432Z" fill="white"/>
<path d="M33.9212 9.40108C33.9431 9.33637 34.0346 9.33637 34.0565 9.40108L34.3734 10.3372C34.3832 10.3662 34.4104 10.3857 34.441 10.3857H35.4599C35.5298 10.3857 35.5581 10.4758 35.5008 10.5157L34.6816 11.0871C34.6555 11.1053 34.6446 11.1385 34.6548 11.1686L34.9689 12.0966C34.991 12.1619 34.9169 12.2176 34.8603 12.1781L34.0297 11.5988C34.0052 11.5817 33.9726 11.5817 33.948 11.5988L33.1174 12.1781C33.0609 12.2176 32.9868 12.1619 33.0089 12.0966L33.323 11.1686C33.3332 11.1385 33.3222 11.1053 33.2962 11.0871L32.4769 10.5157C32.4196 10.4758 32.4479 10.3857 32.5178 10.3857H33.5367C33.5673 10.3857 33.5946 10.3662 33.6044 10.3372L33.9212 9.40108Z" fill="white"/>
<path d="M6.49152 9.40108C6.51342 9.33637 6.60494 9.33637 6.62684 9.40108L6.94368 10.3372C6.9535 10.3662 6.98071 10.3857 7.01134 10.3857H8.03025C8.10015 10.3857 8.12844 10.4758 8.07111 10.5157L7.25188 11.0871C7.22582 11.1053 7.2149 11.1385 7.22508 11.1686L7.53917 12.0966C7.56128 12.1619 7.48719 12.2176 7.43065 12.1781L6.60004 11.5988C6.57549 11.5817 6.54287 11.5817 6.51832 11.5988L5.68771 12.1781C5.63116 12.2176 5.55708 12.1619 5.57918 12.0966L5.89328 11.1686C5.90346 11.1385 5.89254 11.1053 5.86648 11.0871L5.04725 10.5157C4.98991 10.4758 5.01821 10.3857 5.08811 10.3857H6.10702C6.13765 10.3857 6.16486 10.3662 6.17468 10.3372L6.49152 9.40108Z" fill="white"/>
<path d="M13.3492 13.8196C13.3717 13.7561 13.4615 13.7561 13.484 13.8196L13.8007 14.7165C13.8108 14.745 13.8378 14.7641 13.8681 14.7641H14.8795C14.9502 14.7641 14.978 14.8557 14.9192 14.8949L14.1115 15.4349C14.0843 15.453 14.0729 15.4872 14.0838 15.518L14.3947 16.3984C14.4176 16.4631 14.3448 16.5197 14.2877 16.4815L13.4563 15.9258C13.4323 15.9098 13.4009 15.9098 13.3769 15.9258L12.5455 16.4815C12.4884 16.5197 12.4156 16.4631 12.4385 16.3984L12.7494 15.518C12.7603 15.4872 12.7489 15.453 12.7218 15.4349L11.914 14.8949C11.8552 14.8557 11.883 14.7641 11.9537 14.7641H12.9652C12.9954 14.7641 13.0224 14.745 13.0325 14.7165L13.3492 13.8196Z" fill="white"/>
<path d="M20.2057 13.8196C20.2281 13.7561 20.318 13.7561 20.3404 13.8196L20.6571 14.7165C20.6672 14.745 20.6942 14.7641 20.7245 14.7641H21.736C21.8066 14.7641 21.8344 14.8557 21.7757 14.8949L20.9679 15.4349C20.9408 15.453 20.9294 15.4872 20.9402 15.518L21.2511 16.3984C21.274 16.4631 21.2012 16.5197 21.1441 16.4815L20.3127 15.9258C20.2887 15.9098 20.2574 15.9098 20.2334 15.9258L19.402 16.4815C19.3449 16.5197 19.2721 16.4631 19.2949 16.3984L19.6059 15.518C19.6167 15.4872 19.6053 15.453 19.5782 15.4349L18.7704 14.8949C18.7117 14.8557 18.7395 14.7641 18.8101 14.7641H19.8216C19.8519 14.7641 19.8789 14.745 19.8889 14.7165L20.2057 13.8196Z" fill="white"/>
<path d="M27.0631 13.8196C27.0856 13.7561 27.1754 13.7561 27.1978 13.8196L27.5146 14.7165C27.5246 14.745 27.5516 14.7641 27.5819 14.7641H28.5934C28.664 14.7641 28.6918 14.8557 28.6331 14.8949L27.8253 15.4349C27.7982 15.453 27.7868 15.4872 27.7977 15.518L28.1086 16.3984C28.1314 16.4631 28.0586 16.5197 28.0015 16.4815L27.1702 15.9258C27.1461 15.9098 27.1148 15.9098 27.0908 15.9258L26.2594 16.4815C26.2023 16.5197 26.1295 16.4631 26.1524 16.3984L26.4633 15.518C26.4742 15.4872 26.4628 15.453 26.4356 15.4349L25.6278 14.8949C25.5691 14.8557 25.5969 14.7641 25.6675 14.7641H26.679C26.7093 14.7641 26.7363 14.745 26.7464 14.7165L27.0631 13.8196Z" fill="white"/>
<path d="M23.4909 15.9637C23.5133 15.9001 23.6031 15.9001 23.6256 15.9637L23.9423 16.8605C23.9524 16.8891 23.9794 16.9082 24.0097 16.9082H25.0211C25.0918 16.9082 25.1196 16.9997 25.0608 17.039L24.2531 17.5789C24.2259 17.5971 24.2145 17.6313 24.2254 17.6621L24.5363 18.5424C24.5592 18.6072 24.4864 18.6638 24.4293 18.6256L23.5979 18.0699C23.5739 18.0538 23.5425 18.0538 23.5185 18.0699L22.6871 18.6256C22.63 18.6638 22.5572 18.6072 22.5801 18.5424L22.891 17.6621C22.9019 17.6313 22.8905 17.5971 22.8634 17.5789L22.0556 17.039C21.9968 16.9997 22.0246 16.9082 22.0953 16.9082H23.1068C23.137 16.9082 23.164 16.8891 23.1741 16.8605L23.4909 15.9637Z" fill="white"/>
<path d="M30.3502 15.9637C30.3727 15.9001 30.4625 15.9001 30.4849 15.9637L30.8017 16.8605C30.8118 16.8891 30.8387 16.9082 30.869 16.9082H31.8805C31.9511 16.9082 31.9789 16.9997 31.9202 17.039L31.1124 17.5789C31.0853 17.5971 31.0739 17.6313 31.0848 17.6621L31.3957 18.5424C31.4186 18.6072 31.3457 18.6638 31.2886 18.6256L30.4573 18.0699C30.4332 18.0538 30.4019 18.0538 30.3779 18.0699L29.5465 18.6256C29.4894 18.6638 29.4166 18.6072 29.4395 18.5424L29.7504 17.6621C29.7613 17.6313 29.7499 17.5971 29.7227 17.5789L28.9149 17.039C28.8562 16.9997 28.884 16.9082 28.9546 16.9082H29.9661C29.9964 16.9082 30.0234 16.8891 30.0335 16.8605L30.3502 15.9637Z" fill="white"/>
<path d="M16.776 15.9637C16.7984 15.9001 16.8883 15.9001 16.9107 15.9637L17.2275 16.8605C17.2375 16.8891 17.2645 16.9082 17.2948 16.9082H18.3063C18.3769 16.9082 18.4047 16.9997 18.346 17.039L17.5382 17.5789C17.5111 17.5971 17.4997 17.6313 17.5105 17.6621L17.8215 18.5424C17.8443 18.6072 17.7715 18.6638 17.7144 18.6256L16.8831 18.0699C16.859 18.0538 16.8277 18.0538 16.8037 18.0699L15.9723 18.6256C15.9152 18.6638 15.8424 18.6072 15.8653 18.5424L16.1762 17.6621C16.187 17.6313 16.1757 17.5971 16.1485 17.5789L15.3407 17.039C15.282 16.9997 15.3098 16.9082 15.3804 16.9082H16.3919C16.4222 16.9082 16.4492 16.8891 16.4593 16.8605L16.776 15.9637Z" fill="white"/>
<path d="M9.77698 15.9637C9.79942 15.9001 9.88925 15.9001 9.91169 15.9637L10.2284 16.8605C10.2385 16.8891 10.2655 16.9082 10.2958 16.9082H11.3073C11.3779 16.9082 11.4057 16.9997 11.347 17.039L10.5392 17.5789C10.512 17.5971 10.5007 17.6313 10.5115 17.6621L10.8224 18.5424C10.8453 18.6072 10.7725 18.6638 10.7154 18.6256L9.88403 18.0699C9.86 18.0538 9.82867 18.0538 9.80464 18.0699L8.97328 18.6256C8.91617 18.6638 8.84336 18.6072 8.86623 18.5424L9.17714 17.6621C9.18802 17.6313 9.17663 17.5971 9.14949 17.5789L8.3417 17.039C8.28298 16.9997 8.31077 16.9082 8.3814 16.9082H9.39289C9.42316 16.9082 9.45015 16.8891 9.46024 16.8605L9.77698 15.9637Z" fill="white"/>
<path d="M33.9215 13.8196C33.9439 13.7561 34.0338 13.7561 34.0562 13.8196L34.373 14.7165C34.383 14.745 34.41 14.7641 34.4403 14.7641H35.4518C35.5224 14.7641 35.5502 14.8557 35.4915 14.8949L34.6837 15.4349C34.6566 15.453 34.6452 15.4872 34.6561 15.518L34.967 16.3984C34.9898 16.4631 34.917 16.5197 34.8599 16.4815L34.0286 15.9258C34.0045 15.9098 33.9732 15.9098 33.9492 15.9258L33.1178 16.4815C33.0607 16.5197 32.9879 16.4631 33.0108 16.3984L33.3217 15.518C33.3325 15.4872 33.3212 15.453 33.294 15.4349L32.4862 14.8949C32.4275 14.8557 32.4553 14.7641 32.5259 14.7641H33.5374C33.5677 14.7641 33.5947 14.745 33.6048 14.7165L33.9215 13.8196Z" fill="white"/>
<path d="M6.49183 13.8196C6.51426 13.7561 6.6041 13.7561 6.62653 13.8196L6.94328 14.7165C6.95336 14.745 6.98035 14.7641 7.01063 14.7641H8.02212C8.09275 14.7641 8.12053 14.8557 8.06181 14.8949L7.25403 15.4349C7.22688 15.453 7.2155 15.4872 7.22637 15.518L7.53728 16.3984C7.56016 16.4631 7.48735 16.5197 7.43023 16.4815L6.59887 15.9258C6.57485 15.9098 6.54351 15.9098 6.51949 15.9258L5.68812 16.4815C5.63101 16.5197 5.5582 16.4631 5.58108 16.3984L5.89199 15.518C5.90286 15.4872 5.89148 15.453 5.86433 15.4349L5.05655 14.8949C4.99783 14.8557 5.02561 14.7641 5.09624 14.7641H6.10773C6.13801 14.7641 6.165 14.745 6.17508 14.7165L6.49183 13.8196Z" fill="white"/>
<path d="M13.3489 18.1149C13.3708 18.0502 13.4624 18.0502 13.4843 18.1149L13.8011 19.0511C13.8109 19.0801 13.8381 19.0996 13.8688 19.0996H14.8877C14.9576 19.0996 14.9859 19.1896 14.9285 19.2296L14.1093 19.801C14.0832 19.8192 14.0723 19.8524 14.0825 19.8825L14.3966 20.8105C14.4187 20.8758 14.3446 20.9314 14.2881 20.892L13.4575 20.3127C13.4329 20.2955 13.4003 20.2955 13.3757 20.3127L12.5451 20.892C12.4886 20.9314 12.4145 20.8758 12.4366 20.8105L12.7507 19.8825C12.7609 19.8524 12.75 19.8192 12.7239 19.801L11.9047 19.2296C11.8473 19.1896 11.8756 19.0996 11.9455 19.0996H12.9644C12.9951 19.0996 13.0223 19.0801 13.0321 19.0511L13.3489 18.1149Z" fill="white"/>
<path d="M20.2054 18.1149C20.2273 18.0502 20.3188 18.0502 20.3407 18.1149L20.6575 19.0511C20.6674 19.0801 20.6946 19.0996 20.7252 19.0996H21.7441C21.814 19.0996 21.8423 19.1896 21.785 19.2296L20.9657 19.801C20.9397 19.8192 20.9288 19.8524 20.939 19.8825L21.253 20.8105C21.2751 20.8758 21.2011 20.9314 21.1445 20.892L20.3139 20.3127C20.2894 20.2955 20.2567 20.2955 20.2322 20.3127L19.4016 20.892C19.345 20.9314 19.271 20.8758 19.2931 20.8105L19.6071 19.8825C19.6173 19.8524 19.6064 19.8192 19.5803 19.801L18.7611 19.2296C18.7038 19.1896 18.7321 19.0996 18.802 19.0996H19.8209C19.8515 19.0996 19.8787 19.0801 19.8885 19.0511L20.2054 18.1149Z" fill="white"/>
<path d="M27.0628 18.1149C27.0847 18.0502 27.1762 18.0502 27.1981 18.1149L27.515 19.0511C27.5248 19.0801 27.552 19.0996 27.5826 19.0996H28.6015C28.6714 19.0996 28.6997 19.1896 28.6424 19.2296L27.8232 19.801C27.7971 19.8192 27.7862 19.8524 27.7964 19.8825L28.1105 20.8105C28.1326 20.8758 28.0585 20.9314 28.0019 20.892L27.1713 20.3127C27.1468 20.2955 27.1142 20.2955 27.0896 20.3127L26.259 20.892C26.2025 20.9314 26.1284 20.8758 26.1505 20.8105L26.4646 19.8825C26.4748 19.8524 26.4638 19.8192 26.4378 19.801L25.6185 19.2296C25.5612 19.1896 25.5895 19.0996 25.6594 19.0996H26.6783C26.7089 19.0996 26.7362 19.0801 26.746 19.0511L27.0628 18.1149Z" fill="white"/>
<path d="M23.4905 20.258C23.5124 20.1933 23.604 20.1933 23.6259 20.258L23.9427 21.1941C23.9525 21.2231 23.9797 21.2427 24.0104 21.2427H25.0293C25.0992 21.2427 25.1275 21.3327 25.0701 21.3727L24.2509 21.9441C24.2248 21.9623 24.2139 21.9955 24.2241 22.0256L24.5382 22.9536C24.5603 23.0189 24.4862 23.0745 24.4297 23.0351L23.5991 22.4557C23.5745 22.4386 23.5419 22.4386 23.5173 22.4557L22.6867 23.0351C22.6302 23.0745 22.5561 23.0189 22.5782 22.9536L22.8923 22.0256C22.9025 21.9955 22.8916 21.9623 22.8655 21.9441L22.0463 21.3727C21.9889 21.3327 22.0172 21.2427 22.0871 21.2427H23.106C23.1367 21.2427 23.1639 21.2231 23.1737 21.1941L23.4905 20.258Z" fill="white"/>
<path d="M30.3499 20.258C30.3718 20.1933 30.4633 20.1933 30.4852 20.258L30.8021 21.1941C30.8119 21.2231 30.8391 21.2427 30.8697 21.2427H31.8886C31.9585 21.2427 31.9868 21.3327 31.9295 21.3727L31.1103 21.9441C31.0842 21.9623 31.0733 21.9955 31.0835 22.0256L31.3976 22.9536C31.4197 23.0189 31.3456 23.0745 31.2891 23.0351L30.4584 22.4557C30.4339 22.4386 30.4013 22.4386 30.3767 22.4557L29.5461 23.0351C29.4896 23.0745 29.4155 23.0189 29.4376 22.9536L29.7517 22.0256C29.7619 21.9955 29.7509 21.9623 29.7249 21.9441L28.9056 21.3727C28.8483 21.3327 28.8766 21.2427 28.9465 21.2427H29.9654C29.996 21.2427 30.0233 21.2231 30.0331 21.1941L30.3499 20.258Z" fill="white"/>
<path d="M16.7757 20.258C16.7976 20.1933 16.8891 20.1933 16.911 20.258L17.2279 21.1941C17.2377 21.2231 17.2649 21.2427 17.2955 21.2427H18.3144C18.3843 21.2427 18.4126 21.3327 18.3553 21.3727L17.5361 21.9441C17.51 21.9623 17.4991 21.9955 17.5093 22.0256L17.8234 22.9536C17.8455 23.0189 17.7714 23.0745 17.7148 23.0351L16.8842 22.4557C16.8597 22.4386 16.827 22.4386 16.8025 22.4557L15.9719 23.0351C15.9153 23.0745 15.8413 23.0189 15.8634 22.9536L16.1775 22.0256C16.1876 21.9955 16.1767 21.9623 16.1507 21.9441L15.3314 21.3727C15.2741 21.3327 15.3024 21.2427 15.3723 21.2427H16.3912C16.4218 21.2427 16.449 21.2231 16.4589 21.1941L16.7757 20.258Z" fill="white"/>
<path d="M9.77668 20.258C9.79858 20.1933 9.89009 20.1933 9.91199 20.258L10.2288 21.1941C10.2387 21.2231 10.2659 21.2427 10.2965 21.2427H11.3154C11.3853 21.2427 11.4136 21.3327 11.3563 21.3727L10.537 21.9441C10.511 21.9623 10.5001 21.9955 10.5102 22.0256L10.8243 22.9536C10.8464 23.0189 10.7724 23.0745 10.7158 23.0351L9.8852 22.4557C9.86065 22.4386 9.82802 22.4386 9.80347 22.4557L8.97286 23.0351C8.91632 23.0745 8.84224 23.0189 8.86434 22.9536L9.17843 22.0256C9.18862 21.9955 9.1777 21.9623 9.15164 21.9441L8.3324 21.3727C8.27507 21.3327 8.30337 21.2427 8.37327 21.2427H9.39218C9.4228 21.2427 9.45002 21.2231 9.45984 21.1941L9.77668 20.258Z" fill="white"/>
<path d="M33.9212 18.1149C33.9431 18.0502 34.0346 18.0502 34.0565 18.1149L34.3734 19.0511C34.3832 19.0801 34.4104 19.0996 34.441 19.0996H35.4599C35.5298 19.0996 35.5581 19.1896 35.5008 19.2296L34.6816 19.801C34.6555 19.8192 34.6446 19.8524 34.6548 19.8825L34.9689 20.8105C34.991 20.8758 34.9169 20.9314 34.8603 20.892L34.0297 20.3127C34.0052 20.2955 33.9726 20.2955 33.948 20.3127L33.1174 20.892C33.0609 20.9314 32.9868 20.8758 33.0089 20.8105L33.323 19.8825C33.3332 19.8524 33.3222 19.8192 33.2962 19.801L32.4769 19.2296C32.4196 19.1896 32.4479 19.0996 32.5178 19.0996H33.5367C33.5673 19.0996 33.5946 19.0801 33.6044 19.0511L33.9212 18.1149Z" fill="white"/>
<path d="M6.49152 18.1149C6.51342 18.0502 6.60494 18.0502 6.62684 18.1149L6.94368 19.0511C6.9535 19.0801 6.98071 19.0996 7.01134 19.0996H8.03025C8.10015 19.0996 8.12844 19.1896 8.07111 19.2296L7.25188 19.801C7.22582 19.8192 7.2149 19.8524 7.22508 19.8825L7.53917 20.8105C7.56128 20.8758 7.48719 20.9314 7.43065 20.892L6.60004 20.3127C6.57549 20.2955 6.54287 20.2955 6.51832 20.3127L5.68771 20.892C5.63116 20.9314 5.55708 20.8758 5.57918 20.8105L5.89328 19.8825C5.90346 19.8524 5.89254 19.8192 5.86648 19.801L5.04725 19.2296C4.98991 19.1896 5.01821 19.0996 5.08811 19.0996H6.10702C6.13765 19.0996 6.16486 19.0801 6.17468 19.0511L6.49152 18.1149Z" fill="white"/>
<path d="M13.3489 22.5437C13.3708 22.4789 13.4624 22.4789 13.4843 22.5437L13.8011 23.4798C13.8109 23.5088 13.8381 23.5283 13.8688 23.5283H14.8877C14.9576 23.5283 14.9859 23.6183 14.9285 23.6583L14.1093 24.2297C14.0832 24.2479 14.0723 24.2811 14.0825 24.3112L14.3966 25.2392C14.4187 25.3045 14.3446 25.3601 14.2881 25.3207L13.4575 24.7414C13.4329 24.7242 13.4003 24.7242 13.3757 24.7414L12.5451 25.3207C12.4886 25.3601 12.4145 25.3045 12.4366 25.2392L12.7507 24.3112C12.7609 24.2811 12.75 24.2479 12.7239 24.2297L11.9047 23.6583C11.8473 23.6183 11.8756 23.5283 11.9455 23.5283H12.9644C12.9951 23.5283 13.0223 23.5088 13.0321 23.4798L13.3489 22.5437Z" fill="white"/>
<path d="M20.2054 22.5437C20.2273 22.4789 20.3188 22.4789 20.3407 22.5437L20.6575 23.4798C20.6674 23.5088 20.6946 23.5283 20.7252 23.5283H21.7441C21.814 23.5283 21.8423 23.6183 21.785 23.6583L20.9657 24.2297C20.9397 24.2479 20.9288 24.2811 20.939 24.3112L21.253 25.2392C21.2751 25.3045 21.2011 25.3601 21.1445 25.3207L20.3139 24.7414C20.2894 24.7242 20.2567 24.7242 20.2322 24.7414L19.4016 25.3207C19.345 25.3601 19.271 25.3045 19.2931 25.2392L19.6071 24.3112C19.6173 24.2811 19.6064 24.2479 19.5803 24.2297L18.7611 23.6583C18.7038 23.6183 18.7321 23.5283 18.802 23.5283H19.8209C19.8515 23.5283 19.8787 23.5088 19.8885 23.4798L20.2054 22.5437Z" fill="white"/>
<path d="M27.0628 22.5437C27.0847 22.4789 27.1762 22.4789 27.1981 22.5437L27.515 23.4798C27.5248 23.5088 27.552 23.5283 27.5826 23.5283H28.6015C28.6714 23.5283 28.6997 23.6183 28.6424 23.6583L27.8232 24.2297C27.7971 24.2479 27.7862 24.2811 27.7964 24.3112L28.1105 25.2392C28.1326 25.3045 28.0585 25.3601 28.0019 25.3207L27.1713 24.7414C27.1468 24.7242 27.1142 24.7242 27.0896 24.7414L26.259 25.3207C26.2025 25.3601 26.1284 25.3045 26.1505 25.2392L26.4646 24.3112C26.4748 24.2811 26.4638 24.2479 26.4378 24.2297L25.6185 23.6583C25.5612 23.6183 25.5895 23.5283 25.6594 23.5283H26.6783C26.7089 23.5283 26.7362 23.5088 26.746 23.4798L27.0628 22.5437Z" fill="white"/>
<path d="M33.9212 22.5437C33.9431 22.4789 34.0346 22.4789 34.0565 22.5437L34.3734 23.4798C34.3832 23.5088 34.4104 23.5283 34.441 23.5283H35.4599C35.5298 23.5283 35.5581 23.6183 35.5008 23.6583L34.6816 24.2297C34.6555 24.2479 34.6446 24.2811 34.6548 24.3112L34.9689 25.2392C34.991 25.3045 34.9169 25.3601 34.8603 25.3207L34.0297 24.7414C34.0052 24.7242 33.9726 24.7242 33.948 24.7414L33.1174 25.3207C33.0609 25.3601 32.9868 25.3045 33.0089 25.2392L33.323 24.3112C33.3332 24.2811 33.3222 24.2479 33.2962 24.2297L32.4769 23.6583C32.4196 23.6183 32.4479 23.5283 32.5178 23.5283H33.5367C33.5673 23.5283 33.5946 23.5088 33.6044 23.4798L33.9212 22.5437Z" fill="white"/>
<path d="M6.49152 22.5437C6.51342 22.4789 6.60494 22.4789 6.62684 22.5437L6.94368 23.4798C6.9535 23.5088 6.98071 23.5283 7.01134 23.5283H8.03025C8.10015 23.5283 8.12844 23.6183 8.07111 23.6583L7.25188 24.2297C7.22582 24.2479 7.2149 24.2811 7.22508 24.3112L7.53917 25.2392C7.56128 25.3045 7.48719 25.3601 7.43065 25.3207L6.60004 24.7414C6.57549 24.7242 6.54287 24.7242 6.51832 24.7414L5.68771 25.3207C5.63116 25.3601 5.55708 25.3045 5.57918 25.2392L5.89328 24.3112C5.90346 24.2811 5.89254 24.2479 5.86648 24.2297L5.04725 23.6583C4.98991 23.6183 5.01821 23.5283 5.08811 23.5283H6.10702C6.13765 23.5283 6.16486 23.5088 6.17468 23.4798L6.49152 22.5437Z" fill="white"/>
</svg>
